<svg width="256" height="256" viewBox="0 0 256 256" fill="none" xmlns="http://www.w3.org/2000/svg">
<path fill-rule="evenodd" clip-rule="evenodd" d="M199.081 9.01598C190.27 11.324 183.684 17.446 180.595 26.199C178.852 31.1405 178.8 37.7785 180.467 42.75C182.961 50.1895 186.818 56.7035 198.152 72.6235L205.893 83.4965L213.626 72.6235C225.299 56.212 229.285 49.4035 231.512 42.073C232.927 37.4125 232.741 30.341 231.083 25.7695C227.287 15.3085 216.792 7.96098 205.75 8.03498C204.1 8.04598 201.099 8.48748 199.081 9.01598ZM201.339 22.241C198.41 23.3625 195.848 25.654 194.243 28.588C193.028 30.8105 192.788 31.828 192.788 34.75C192.788 37.672 193.028 38.6895 194.243 40.912C196.899 45.7685 201.625 48.354 206.963 47.87C210.614 47.539 213.365 46.125 215.851 43.3005C220.153 38.413 220.153 31.087 215.851 26.1995C214.766 24.967 212.949 23.484 211.814 22.904C209.176 21.5575 203.983 21.2285 201.339 22.241ZM193.5 85.2765C154.852 90.731 134.178 95.8065 117.25 103.995C99.448 112.607 95.9205 121.955 106.487 132.521C111.37 137.404 117.824 141.409 132 148.354C139.012 151.789 146.55 155.684 148.75 157.01C154.588 160.529 158.64 164.395 160.546 168.266C162.011 171.243 162.112 171.775 161.896 175.367C161.632 179.767 160.327 182.843 156.747 187.5C149.434 197.01 129.185 212.15 105.837 225.563C98.3815 229.846 76.458 240.84 68.1185 244.478C64.746 245.95 62.0705 247.237 62.173 247.34C62.4175 247.584 72.6745 245.423 82.8155 242.991C114.474 235.398 136.978 225.886 161.74 209.627C172.475 202.579 178.354 197.994 183.809 192.413C191.43 184.617 194.172 179.402 194.184 172.68C194.196 166.834 192.392 163.296 186.297 157.209C181.271 152.191 176.781 149.085 162.5 140.751C150.635 133.827 147.028 131.436 143.463 128.135C138.357 123.409 137.304 119.351 139.973 114.698C144.447 106.899 160.573 98.647 191.75 88.2035C198.625 85.9005 203.688 84.0375 203 84.064C202.312 84.0905 198.037 84.636 193.5 85.2765ZM51.056 145.522C34.574 149.839 23.5 164.096 23.5 181C23.5 190.844 27.553 200.73 38.2655 217.012C43.0035 224.214 59.5655 247.25 60.0055 247.25C60.6095 247.25 80.464 219.233 84.5235 212.652C93.2365 198.527 96.0025 191.483 96.377 182.465C96.6705 175.385 95.603 170.427 92.4005 164C89.4005 157.979 83.0175 151.597 77 148.601C68.7685 144.504 59.2545 143.375 51.056 145.522ZM54.422 163.668C49.4115 165.536 46.1045 168.438 43.624 173.143C42.378 175.507 42.25 176.239 42.25 181C42.25 186.022 42.3235 186.386 43.9495 189.384C45.9045 192.989 48.346 195.376 52.107 197.357C54.512 198.624 55.2225 198.75 60 198.75C64.7775 198.75 65.488 198.624 67.893 197.357C71.654 195.376 74.0955 192.989 76.0505 189.384C77.6765 186.386 77.75 186.022 77.75 181C77.75 176.222 77.6245 175.512 76.3575 173.107C74.369 169.333 71.981 166.896 68.384 164.972C65.6055 163.485 64.7395 163.278 60.75 163.141C57.8205 163.04 55.612 163.224 54.422 163.668Z" fill="white"/>
</svg>
