<svg width="256" height="256" viewBox="0 0 256 256" fill="none" xmlns="http://www.w3.org/2000/svg">
<g clip-path="url(#clip0_26_22)">
<path fill-rule="evenodd" clip-rule="evenodd" d="M94.4431 30.138L64.0711 60.276L56.2861 53.232C52.0031 49.358 47.1781 44.796 45.5631 43.094C41.9131 39.249 38.5271 39.121 34.8051 42.687C29.7251 47.553 30.5131 49.04 46.7621 65.263C57.8761 76.358 62.1401 80 64.0171 80C65.9611 80 74.1731 72.335 101.255 45.245C138.977 7.511 138.665 7.927 133.195 2.687C127.536 -2.735 127.662 -2.825 94.4431 30.138ZM15.3361 9.634C10.0651 11.502 2.53106 19.426 1.08906 24.618C0.412061 27.056 0.00906062 41.729 0.00606062 64.072C-0.000939378 105.235 0.12906 106.041 7.93706 113.345C10.6161 115.85 14.4511 118.309 16.6181 118.911C21.8831 120.373 90.1171 120.373 95.3821 118.911C100.857 117.391 108.485 109.959 110.43 104.25C111.294 101.717 112 96.415 112 92.468C112 86.237 111.677 84.944 109.548 82.646C106.256 79.094 101.744 79.094 98.4521 82.646C96.3421 84.923 96.0001 86.254 96.0001 92.191C96.0001 98.183 95.6771 99.414 93.5451 101.545L91.0911 104H56.0001H20.9091L18.4551 101.545L16.0001 99.091V64V28.909L18.4551 26.455L20.9091 24H47.8091H74.7081L77.3541 21.548C80.7521 18.399 80.8261 14.184 77.5481 10.646L75.0951 8L47.2981 8.079C25.4961 8.141 18.6021 8.476 15.3361 9.634ZM172.034 25.259C166.889 27.901 167.287 37.018 172.635 39.052C174.325 39.694 189.395 39.963 213.619 39.784C256.824 39.464 255.455 39.719 255.455 32C255.455 24.271 256.877 24.532 213.215 24.246C183.53 24.052 173.925 24.288 172.034 25.259ZM140.034 73.264C134.901 75.889 135.285 85.017 140.612 87.043C142.305 87.686 162.862 87.95 197.595 87.775C258.767 87.465 255.455 87.911 255.455 80C255.455 72.084 258.817 72.531 197.215 72.251C154.744 72.058 141.948 72.285 140.034 73.264ZM15.8851 145.357C10.2491 147.407 6.25106 150.717 3.25406 155.815L0.500061 160.5V200.078V239.657L3.52606 244.552C5.40206 247.586 8.41406 250.598 11.4481 252.474L16.3431 255.5H56.0001H95.6571L100.552 252.474C103.586 250.598 106.598 247.586 108.474 244.552L111.5 239.657V200V160.343L108.474 155.448C106.599 152.416 103.585 149.401 100.554 147.526L95.6611 144.5L57.5801 144.271C28.1451 144.094 18.6791 144.34 15.8851 145.357ZM172.034 169.259C166.889 171.901 167.287 181.018 172.635 183.052C174.325 183.694 189.395 183.963 213.619 183.784C256.824 183.464 255.455 183.719 255.455 176C255.455 168.271 256.877 168.532 213.215 168.246C183.53 168.052 173.925 168.288 172.034 169.259ZM140.034 217.264C134.901 219.889 135.285 229.017 140.612 231.043C142.305 231.686 162.862 231.95 197.595 231.775C258.767 231.465 255.455 231.911 255.455 224C255.455 216.084 258.817 216.531 197.215 216.251C154.744 216.058 141.948 216.285 140.034 217.264Z" fill="white"/>
</g>
<defs>
<clipPath id="clip0_26_22">
<rect width="256" height="256" fill="white"/>
</clipPath>
</defs>
</svg>
