<svg width="256" height="256" viewBox="0 0 256 256" fill="none" xmlns="http://www.w3.org/2000/svg">
<g clip-path="url(#clip0_26_26)">
<mask id="path-1-outside-1_26_26" maskUnits="userSpaceOnUse" x="-1.9165" y="-1.87036" width="260" height="259" fill="black">
<rect fill="white" x="-1.9165" y="-1.87036" width="260" height="259"/>
<path fill-rule="evenodd" clip-rule="evenodd" d="M38.1619 0.71293C34.0509 2.01143 30.9344 4.59443 29.0684 8.24993C27.8429 10.6514 0.550891 112.156 0.154891 115.787C-0.394109 120.818 2.26789 126.433 6.59639 129.377C10.7249 132.184 10.6699 132.178 33.0639 132.474L53.8779 132.75L38.8499 174.25C24.1724 214.781 23.8219 215.837 23.8214 219.5C23.8209 223.947 25.0204 226.902 28.0589 229.941C30.8014 232.684 34.0769 234.139 38.0829 234.395C44.3429 234.795 48.4754 232.443 53.1729 225.807C54.3634 224.125 62.1649 213.094 70.5094 201.294L85.6819 179.838L86.7934 185.915C88.3219 194.272 90.4349 200.517 94.5199 208.75C99.0074 217.794 103.373 223.873 110.5 231C117.65 238.15 123.737 242.52 132.75 246.971C144.571 252.81 154.374 255.349 167 255.839C178.381 256.281 187.342 255.062 197.5 251.688C221.562 243.696 240.66 225.655 249.982 202.111C266.4 160.644 247.916 113.39 207.669 93.9424C201.702 91.0589 194.003 88.4489 187.875 87.2319L183.5 86.3629V81.1914V76.0204L185.451 75.0244C193.036 71.1554 194.084 59.8759 187.385 54.2269C184.037 51.4039 183.218 51.2554 171 51.2524C157.743 51.2494 156.381 51.5674 152.858 55.4849C149.662 59.0394 148.694 63.4459 150.088 68.0964C150.803 70.4829 153.753 73.9404 156.199 75.2574L158 76.2274V81.2854V86.3434L153.625 87.2004C147.211 88.4559 139.029 91.3129 132.548 94.5599L126.847 97.4159L125.048 96.2914C121.554 94.1069 120.564 93.9999 103.867 93.9999C88.8789 93.9999 87.8994 93.9454 88.1424 93.1249C88.2849 92.6434 95.8509 76.1074 104.955 56.3774C114.06 36.6479 121.747 19.3974 122.037 18.0429C123.45 11.4564 119.628 4.35793 113.025 1.30293C110.787 0.26693 110.18 0.24843 75.4999 0.15193C47.4874 0.0734303 39.8214 0.18893 38.1619 0.71293ZM39.5169 9.37593C38.5639 9.85643 37.3959 10.9249 36.9214 11.7499C36.0389 13.2849 8.49989 115.337 8.49989 117.073C8.49989 118.936 9.95989 121.49 11.5949 122.487C13.1914 123.46 14.0654 123.496 36.2499 123.501C50.8164 123.504 59.9454 123.699 61.1469 124.032C62.5599 124.424 63.2509 124.992 63.8524 126.254L64.6609 127.949L48.2664 173.431C30.4344 222.902 31.0034 220.917 33.8809 223.601C35.8594 225.446 37.1629 226 39.5259 226C41.2824 226 41.9124 225.699 43.4579 224.125C45.6524 221.889 84.7984 166.595 85.5079 164.729C85.7784 164.017 85.9999 162.634 85.9999 161.655C85.9999 158.793 88.3439 148.027 90.0189 143.199C94.8669 129.22 103.936 115.753 114.756 106.466L119.085 102.75L99.1679 102.485C88.2129 102.34 79.2024 102.171 79.1444 102.11C77.4219 100.305 76.9999 99.5569 76.9999 98.3099C76.9999 97.3919 84.1239 81.3599 95.3434 57.0294C114.894 14.6324 114.816 14.8339 112.8 11.7569C112.33 11.0394 111.226 10.0139 110.348 9.47793C108.806 8.53793 107.571 8.50343 74.9999 8.50243C43.8614 8.50143 41.1159 8.56893 39.5169 9.37593ZM161.25 59.8579C158.001 60.6439 156.874 64.7674 159.289 67.0379C160.545 68.2189 160.816 68.2534 169.914 68.3949C178.084 68.5214 179.468 68.4279 180.994 67.6449C183.051 66.5899 183.914 64.6389 183.216 62.6249C182.305 59.9989 180.255 59.4949 170.75 59.5589C166.075 59.5904 161.8 59.7249 161.25 59.8579ZM166.5 81.2499V85.4999H170.75H175V81.2499V76.9999H170.75H166.5V81.2499ZM158.75 94.7604C145.52 96.8969 132.457 102.822 121.681 111.574C107.538 123.06 97.4434 141.044 94.7034 159.638C93.5314 167.594 93.9589 179.751 95.6659 187C97.3649 194.214 98.6424 197.833 101.754 204.25C117.175 236.047 151.822 252.948 186.781 245.727C195.471 243.932 206.198 239.298 214.114 233.919C220.375 229.665 229.879 220.13 233.945 214.023C240.034 204.877 244.444 194.177 246.318 184C247.654 176.745 247.524 162.914 246.055 156C240.859 131.54 226.054 112.329 204.25 101.754C197.846 98.6489 194.234 97.3724 187 95.6589C180.268 94.0649 165.889 93.6074 158.75 94.7604ZM160 103.236C137.469 106.973 118.794 121.056 108.944 141.736C104.15 151.8 102.242 161.396 102.678 173.25C102.98 181.459 103.903 186.383 106.517 193.75C114.553 216.392 134.149 233.052 158.365 237.829C164.91 239.12 177.189 239.011 183.75 237.603C190.351 236.186 194.263 234.883 199.95 232.205C229.904 218.101 245.404 183.724 236.225 151.75C234.63 146.192 230.498 137.445 226.989 132.199C223.7 127.282 213.923 117.483 209.208 114.38C201.362 109.215 193.938 106.011 185 103.931C179.321 102.61 166.005 102.239 160 103.236ZM162.407 111.539C157.275 112.292 151.963 113.84 146.414 116.2L144.579 116.98L147.051 121.365C149.723 126.105 149.843 127.267 147.876 129.375C146.644 130.695 144.242 130.864 142.643 129.744C142.049 129.328 140.633 127.303 139.496 125.244C138.36 123.184 137.229 121.5 136.984 121.5C136.491 121.5 131.687 125.264 129.079 127.693C127.097 129.539 121.5 136.385 121.5 136.962C121.5 137.183 123.291 138.405 125.479 139.677C127.668 140.949 129.693 142.427 129.979 142.962C130.826 144.544 130.579 146.352 129.315 147.822C127.551 149.872 125.545 149.645 120.885 146.866C118.76 145.598 116.921 144.723 116.799 144.92C115.085 147.694 112.001 158.484 111.31 164.125L111.019 166.5H116.032C120.688 166.5 121.133 166.587 122.272 167.727C123.48 168.935 123.857 170.988 123.189 172.727C122.587 174.297 120.227 175 115.556 175H111.063L111.314 176.875C112.259 183.907 114.957 193.382 116.689 195.751C117.28 196.56 117.621 196.453 121.278 194.312C125.575 191.797 126.335 191.63 128.464 192.731C130.002 193.527 130.5 194.404 130.5 196.324C130.5 198.418 129.67 199.314 125.508 201.715C123.304 202.986 121.5 204.169 121.5 204.342C121.5 205.653 130.854 215.511 135.165 218.743C137.324 220.362 136.96 220.603 139.716 215.737C141.809 212.043 142.969 210.948 144.846 210.895C146.982 210.834 148.347 211.772 149 213.751C149.537 215.379 149.441 215.76 147.707 218.88C146.677 220.733 145.526 222.728 145.151 223.312C144.495 224.331 144.624 224.437 148.358 225.934C153.117 227.841 159.012 229.371 163.292 229.809L166.5 230.138V225.113V220.089L168.091 218.75C170.021 217.125 172.152 217.32 173.875 219.277C174.874 220.413 175 221.09 175 225.347V230.138L178.207 229.809C183.526 229.264 194.519 226.001 196.192 224.47C196.439 224.244 195.612 222.324 194.317 220.114C193.042 217.94 192 215.575 192 214.859C192 212.82 193.947 210.916 196.095 210.856C198.455 210.789 199.13 211.405 201.837 216.098C203.249 218.547 204.306 219.878 204.67 219.668C208.628 217.379 217.486 208.525 219.672 204.672C219.875 204.315 218.492 203.211 216.042 201.775C211.289 198.988 210.9 198.563 210.9 196.155C210.9 193.955 212.76 192 214.853 192C215.567 192 217.942 193.033 220.131 194.295C222.319 195.557 224.282 196.401 224.492 196.17C226.006 194.508 229.269 183.485 229.809 178.207L230.138 175H225.347C221.09 175 220.413 174.874 219.277 173.875C217.32 172.152 217.125 170.021 218.75 168.091L220.089 166.5H225.113H230.138L229.809 163.292C229.382 159.124 227.99 153.738 226.015 148.618L224.434 144.517L221.842 146.047C216.776 149.037 215.293 149.55 213.508 148.928C211.562 148.249 210.259 145.693 210.946 143.899C211.517 142.406 212.548 141.546 216.5 139.27C218.287 138.24 219.83 137.322 219.928 137.229C220.306 136.871 215.436 131.081 211.931 127.723C207.413 123.394 204.697 121.319 204.062 121.711C203.797 121.875 202.75 123.494 201.735 125.31C199.412 129.462 198.374 130.5 196.541 130.5C194.399 130.5 193.549 130.045 192.731 128.464C191.641 126.355 191.799 125.615 194.253 121.317C195.489 119.154 196.5 117.303 196.5 117.202C196.5 116.261 186.368 112.826 181.17 112.004C179.289 111.707 177.131 111.365 176.375 111.244L175 111.025V115.537C175 120.228 174.299 122.586 172.727 123.189C170.988 123.857 168.935 123.48 167.727 122.272C166.587 121.132 166.5 120.689 166.5 116.022C166.5 112.305 166.337 111.016 165.875 111.061C165.531 111.094 163.97 111.309 162.407 111.539ZM167.536 133.817C166.53 135.096 166.5 135.674 166.5 153.765V172.396L168.142 173.823C169.045 174.608 172.638 177.132 176.125 179.434C181.898 183.243 182.623 183.588 184.218 183.289C186.238 182.91 187.5 181.398 187.5 179.356C187.5 177.019 186.756 176.23 180.747 172.194L175 168.334V152.142C175 132.793 174.929 132.5 170.245 132.5C169.034 132.5 168.287 132.863 167.536 133.817Z"/>
</mask>
<path fill-rule="evenodd" clip-rule="evenodd" d="M38.1619 0.71293C34.0509 2.01143 30.9344 4.59443 29.0684 8.24993C27.8429 10.6514 0.550891 112.156 0.154891 115.787C-0.394109 120.818 2.26789 126.433 6.59639 129.377C10.7249 132.184 10.6699 132.178 33.0639 132.474L53.8779 132.75L38.8499 174.25C24.1724 214.781 23.8219 215.837 23.8214 219.5C23.8209 223.947 25.0204 226.902 28.0589 229.941C30.8014 232.684 34.0769 234.139 38.0829 234.395C44.3429 234.795 48.4754 232.443 53.1729 225.807C54.3634 224.125 62.1649 213.094 70.5094 201.294L85.6819 179.838L86.7934 185.915C88.3219 194.272 90.4349 200.517 94.5199 208.75C99.0074 217.794 103.373 223.873 110.5 231C117.65 238.15 123.737 242.52 132.75 246.971C144.571 252.81 154.374 255.349 167 255.839C178.381 256.281 187.342 255.062 197.5 251.688C221.562 243.696 240.66 225.655 249.982 202.111C266.4 160.644 247.916 113.39 207.669 93.9424C201.702 91.0589 194.003 88.4489 187.875 87.2319L183.5 86.3629V81.1914V76.0204L185.451 75.0244C193.036 71.1554 194.084 59.8759 187.385 54.2269C184.037 51.4039 183.218 51.2554 171 51.2524C157.743 51.2494 156.381 51.5674 152.858 55.4849C149.662 59.0394 148.694 63.4459 150.088 68.0964C150.803 70.4829 153.753 73.9404 156.199 75.2574L158 76.2274V81.2854V86.3434L153.625 87.2004C147.211 88.4559 139.029 91.3129 132.548 94.5599L126.847 97.4159L125.048 96.2914C121.554 94.1069 120.564 93.9999 103.867 93.9999C88.8789 93.9999 87.8994 93.9454 88.1424 93.1249C88.2849 92.6434 95.8509 76.1074 104.955 56.3774C114.06 36.6479 121.747 19.3974 122.037 18.0429C123.45 11.4564 119.628 4.35793 113.025 1.30293C110.787 0.26693 110.18 0.24843 75.4999 0.15193C47.4874 0.0734303 39.8214 0.18893 38.1619 0.71293ZM39.5169 9.37593C38.5639 9.85643 37.3959 10.9249 36.9214 11.7499C36.0389 13.2849 8.49989 115.337 8.49989 117.073C8.49989 118.936 9.95989 121.49 11.5949 122.487C13.1914 123.46 14.0654 123.496 36.2499 123.501C50.8164 123.504 59.9454 123.699 61.1469 124.032C62.5599 124.424 63.2509 124.992 63.8524 126.254L64.6609 127.949L48.2664 173.431C30.4344 222.902 31.0034 220.917 33.8809 223.601C35.8594 225.446 37.1629 226 39.5259 226C41.2824 226 41.9124 225.699 43.4579 224.125C45.6524 221.889 84.7984 166.595 85.5079 164.729C85.7784 164.017 85.9999 162.634 85.9999 161.655C85.9999 158.793 88.3439 148.027 90.0189 143.199C94.8669 129.22 103.936 115.753 114.756 106.466L119.085 102.75L99.1679 102.485C88.2129 102.34 79.2024 102.171 79.1444 102.11C77.4219 100.305 76.9999 99.5569 76.9999 98.3099C76.9999 97.3919 84.1239 81.3599 95.3434 57.0294C114.894 14.6324 114.816 14.8339 112.8 11.7569C112.33 11.0394 111.226 10.0139 110.348 9.47793C108.806 8.53793 107.571 8.50343 74.9999 8.50243C43.8614 8.50143 41.1159 8.56893 39.5169 9.37593ZM161.25 59.8579C158.001 60.6439 156.874 64.7674 159.289 67.0379C160.545 68.2189 160.816 68.2534 169.914 68.3949C178.084 68.5214 179.468 68.4279 180.994 67.6449C183.051 66.5899 183.914 64.6389 183.216 62.6249C182.305 59.9989 180.255 59.4949 170.75 59.5589C166.075 59.5904 161.8 59.7249 161.25 59.8579ZM166.5 81.2499V85.4999H170.75H175V81.2499V76.9999H170.75H166.5V81.2499ZM158.75 94.7604C145.52 96.8969 132.457 102.822 121.681 111.574C107.538 123.06 97.4434 141.044 94.7034 159.638C93.5314 167.594 93.9589 179.751 95.6659 187C97.3649 194.214 98.6424 197.833 101.754 204.25C117.175 236.047 151.822 252.948 186.781 245.727C195.471 243.932 206.198 239.298 214.114 233.919C220.375 229.665 229.879 220.13 233.945 214.023C240.034 204.877 244.444 194.177 246.318 184C247.654 176.745 247.524 162.914 246.055 156C240.859 131.54 226.054 112.329 204.25 101.754C197.846 98.6489 194.234 97.3724 187 95.6589C180.268 94.0649 165.889 93.6074 158.75 94.7604ZM160 103.236C137.469 106.973 118.794 121.056 108.944 141.736C104.15 151.8 102.242 161.396 102.678 173.25C102.98 181.459 103.903 186.383 106.517 193.75C114.553 216.392 134.149 233.052 158.365 237.829C164.91 239.12 177.189 239.011 183.75 237.603C190.351 236.186 194.263 234.883 199.95 232.205C229.904 218.101 245.404 183.724 236.225 151.75C234.63 146.192 230.498 137.445 226.989 132.199C223.7 127.282 213.923 117.483 209.208 114.38C201.362 109.215 193.938 106.011 185 103.931C179.321 102.61 166.005 102.239 160 103.236ZM162.407 111.539C157.275 112.292 151.963 113.84 146.414 116.2L144.579 116.98L147.051 121.365C149.723 126.105 149.843 127.267 147.876 129.375C146.644 130.695 144.242 130.864 142.643 129.744C142.049 129.328 140.633 127.303 139.496 125.244C138.36 123.184 137.229 121.5 136.984 121.5C136.491 121.5 131.687 125.264 129.079 127.693C127.097 129.539 121.5 136.385 121.5 136.962C121.5 137.183 123.291 138.405 125.479 139.677C127.668 140.949 129.693 142.427 129.979 142.962C130.826 144.544 130.579 146.352 129.315 147.822C127.551 149.872 125.545 149.645 120.885 146.866C118.76 145.598 116.921 144.723 116.799 144.92C115.085 147.694 112.001 158.484 111.31 164.125L111.019 166.5H116.032C120.688 166.5 121.133 166.587 122.272 167.727C123.48 168.935 123.857 170.988 123.189 172.727C122.587 174.297 120.227 175 115.556 175H111.063L111.314 176.875C112.259 183.907 114.957 193.382 116.689 195.751C117.28 196.56 117.621 196.453 121.278 194.312C125.575 191.797 126.335 191.63 128.464 192.731C130.002 193.527 130.5 194.404 130.5 196.324C130.5 198.418 129.67 199.314 125.508 201.715C123.304 202.986 121.5 204.169 121.5 204.342C121.5 205.653 130.854 215.511 135.165 218.743C137.324 220.362 136.96 220.603 139.716 215.737C141.809 212.043 142.969 210.948 144.846 210.895C146.982 210.834 148.347 211.772 149 213.751C149.537 215.379 149.441 215.76 147.707 218.88C146.677 220.733 145.526 222.728 145.151 223.312C144.495 224.331 144.624 224.437 148.358 225.934C153.117 227.841 159.012 229.371 163.292 229.809L166.5 230.138V225.113V220.089L168.091 218.75C170.021 217.125 172.152 217.32 173.875 219.277C174.874 220.413 175 221.09 175 225.347V230.138L178.207 229.809C183.526 229.264 194.519 226.001 196.192 224.47C196.439 224.244 195.612 222.324 194.317 220.114C193.042 217.94 192 215.575 192 214.859C192 212.82 193.947 210.916 196.095 210.856C198.455 210.789 199.13 211.405 201.837 216.098C203.249 218.547 204.306 219.878 204.67 219.668C208.628 217.379 217.486 208.525 219.672 204.672C219.875 204.315 218.492 203.211 216.042 201.775C211.289 198.988 210.9 198.563 210.9 196.155C210.9 193.955 212.76 192 214.853 192C215.567 192 217.942 193.033 220.131 194.295C222.319 195.557 224.282 196.401 224.492 196.17C226.006 194.508 229.269 183.485 229.809 178.207L230.138 175H225.347C221.09 175 220.413 174.874 219.277 173.875C217.32 172.152 217.125 170.021 218.75 168.091L220.089 166.5H225.113H230.138L229.809 163.292C229.382 159.124 227.99 153.738 226.015 148.618L224.434 144.517L221.842 146.047C216.776 149.037 215.293 149.55 213.508 148.928C211.562 148.249 210.259 145.693 210.946 143.899C211.517 142.406 212.548 141.546 216.5 139.27C218.287 138.24 219.83 137.322 219.928 137.229C220.306 136.871 215.436 131.081 211.931 127.723C207.413 123.394 204.697 121.319 204.062 121.711C203.797 121.875 202.75 123.494 201.735 125.31C199.412 129.462 198.374 130.5 196.541 130.5C194.399 130.5 193.549 130.045 192.731 128.464C191.641 126.355 191.799 125.615 194.253 121.317C195.489 119.154 196.5 117.303 196.5 117.202C196.5 116.261 186.368 112.826 181.17 112.004C179.289 111.707 177.131 111.365 176.375 111.244L175 111.025V115.537C175 120.228 174.299 122.586 172.727 123.189C170.988 123.857 168.935 123.48 167.727 122.272C166.587 121.132 166.5 120.689 166.5 116.022C166.5 112.305 166.337 111.016 165.875 111.061C165.531 111.094 163.97 111.309 162.407 111.539ZM167.536 133.817C166.53 135.096 166.5 135.674 166.5 153.765V172.396L168.142 173.823C169.045 174.608 172.638 177.132 176.125 179.434C181.898 183.243 182.623 183.588 184.218 183.289C186.238 182.91 187.5 181.398 187.5 179.356C187.5 177.019 186.756 176.23 180.747 172.194L175 168.334V152.142C175 132.793 174.929 132.5 170.245 132.5C169.034 132.5 168.287 132.863 167.536 133.817Z" fill="white"/>
<path fill-rule="evenodd" clip-rule="evenodd" d="M38.1619 0.71293C34.0509 2.01143 30.9344 4.59443 29.0684 8.24993C27.8429 10.6514 0.550891 112.156 0.154891 115.787C-0.394109 120.818 2.26789 126.433 6.59639 129.377C10.7249 132.184 10.6699 132.178 33.0639 132.474L53.8779 132.75L38.8499 174.25C24.1724 214.781 23.8219 215.837 23.8214 219.5C23.8209 223.947 25.0204 226.902 28.0589 229.941C30.8014 232.684 34.0769 234.139 38.0829 234.395C44.3429 234.795 48.4754 232.443 53.1729 225.807C54.3634 224.125 62.1649 213.094 70.5094 201.294L85.6819 179.838L86.7934 185.915C88.3219 194.272 90.4349 200.517 94.5199 208.75C99.0074 217.794 103.373 223.873 110.5 231C117.65 238.15 123.737 242.52 132.75 246.971C144.571 252.81 154.374 255.349 167 255.839C178.381 256.281 187.342 255.062 197.5 251.688C221.562 243.696 240.66 225.655 249.982 202.111C266.4 160.644 247.916 113.39 207.669 93.9424C201.702 91.0589 194.003 88.4489 187.875 87.2319L183.5 86.3629V81.1914V76.0204L185.451 75.0244C193.036 71.1554 194.084 59.8759 187.385 54.2269C184.037 51.4039 183.218 51.2554 171 51.2524C157.743 51.2494 156.381 51.5674 152.858 55.4849C149.662 59.0394 148.694 63.4459 150.088 68.0964C150.803 70.4829 153.753 73.9404 156.199 75.2574L158 76.2274V81.2854V86.3434L153.625 87.2004C147.211 88.4559 139.029 91.3129 132.548 94.5599L126.847 97.4159L125.048 96.2914C121.554 94.1069 120.564 93.9999 103.867 93.9999C88.8789 93.9999 87.8994 93.9454 88.1424 93.1249C88.2849 92.6434 95.8509 76.1074 104.955 56.3774C114.06 36.6479 121.747 19.3974 122.037 18.0429C123.45 11.4564 119.628 4.35793 113.025 1.30293C110.787 0.26693 110.18 0.24843 75.4999 0.15193C47.4874 0.0734303 39.8214 0.18893 38.1619 0.71293ZM39.5169 9.37593C38.5639 9.85643 37.3959 10.9249 36.9214 11.7499C36.0389 13.2849 8.49989 115.337 8.49989 117.073C8.49989 118.936 9.95989 121.49 11.5949 122.487C13.1914 123.46 14.0654 123.496 36.2499 123.501C50.8164 123.504 59.9454 123.699 61.1469 124.032C62.5599 124.424 63.2509 124.992 63.8524 126.254L64.6609 127.949L48.2664 173.431C30.4344 222.902 31.0034 220.917 33.8809 223.601C35.8594 225.446 37.1629 226 39.5259 226C41.2824 226 41.9124 225.699 43.4579 224.125C45.6524 221.889 84.7984 166.595 85.5079 164.729C85.7784 164.017 85.9999 162.634 85.9999 161.655C85.9999 158.793 88.3439 148.027 90.0189 143.199C94.8669 129.22 103.936 115.753 114.756 106.466L119.085 102.75L99.1679 102.485C88.2129 102.34 79.2024 102.171 79.1444 102.11C77.4219 100.305 76.9999 99.5569 76.9999 98.3099C76.9999 97.3919 84.1239 81.3599 95.3434 57.0294C114.894 14.6324 114.816 14.8339 112.8 11.7569C112.33 11.0394 111.226 10.0139 110.348 9.47793C108.806 8.53793 107.571 8.50343 74.9999 8.50243C43.8614 8.50143 41.1159 8.56893 39.5169 9.37593ZM161.25 59.8579C158.001 60.6439 156.874 64.7674 159.289 67.0379C160.545 68.2189 160.816 68.2534 169.914 68.3949C178.084 68.5214 179.468 68.4279 180.994 67.6449C183.051 66.5899 183.914 64.6389 183.216 62.6249C182.305 59.9989 180.255 59.4949 170.75 59.5589C166.075 59.5904 161.8 59.7249 161.25 59.8579ZM166.5 81.2499V85.4999H170.75H175V81.2499V76.9999H170.75H166.5V81.2499ZM158.75 94.7604C145.52 96.8969 132.457 102.822 121.681 111.574C107.538 123.06 97.4434 141.044 94.7034 159.638C93.5314 167.594 93.9589 179.751 95.6659 187C97.3649 194.214 98.6424 197.833 101.754 204.25C117.175 236.047 151.822 252.948 186.781 245.727C195.471 243.932 206.198 239.298 214.114 233.919C220.375 229.665 229.879 220.13 233.945 214.023C240.034 204.877 244.444 194.177 246.318 184C247.654 176.745 247.524 162.914 246.055 156C240.859 131.54 226.054 112.329 204.25 101.754C197.846 98.6489 194.234 97.3724 187 95.6589C180.268 94.0649 165.889 93.6074 158.75 94.7604ZM160 103.236C137.469 106.973 118.794 121.056 108.944 141.736C104.15 151.8 102.242 161.396 102.678 173.25C102.98 181.459 103.903 186.383 106.517 193.75C114.553 216.392 134.149 233.052 158.365 237.829C164.91 239.12 177.189 239.011 183.75 237.603C190.351 236.186 194.263 234.883 199.95 232.205C229.904 218.101 245.404 183.724 236.225 151.75C234.63 146.192 230.498 137.445 226.989 132.199C223.7 127.282 213.923 117.483 209.208 114.38C201.362 109.215 193.938 106.011 185 103.931C179.321 102.61 166.005 102.239 160 103.236ZM162.407 111.539C157.275 112.292 151.963 113.84 146.414 116.2L144.579 116.98L147.051 121.365C149.723 126.105 149.843 127.267 147.876 129.375C146.644 130.695 144.242 130.864 142.643 129.744C142.049 129.328 140.633 127.303 139.496 125.244C138.36 123.184 137.229 121.5 136.984 121.5C136.491 121.5 131.687 125.264 129.079 127.693C127.097 129.539 121.5 136.385 121.5 136.962C121.5 137.183 123.291 138.405 125.479 139.677C127.668 140.949 129.693 142.427 129.979 142.962C130.826 144.544 130.579 146.352 129.315 147.822C127.551 149.872 125.545 149.645 120.885 146.866C118.76 145.598 116.921 144.723 116.799 144.92C115.085 147.694 112.001 158.484 111.31 164.125L111.019 166.5H116.032C120.688 166.5 121.133 166.587 122.272 167.727C123.48 168.935 123.857 170.988 123.189 172.727C122.587 174.297 120.227 175 115.556 175H111.063L111.314 176.875C112.259 183.907 114.957 193.382 116.689 195.751C117.28 196.56 117.621 196.453 121.278 194.312C125.575 191.797 126.335 191.63 128.464 192.731C130.002 193.527 130.5 194.404 130.5 196.324C130.5 198.418 129.67 199.314 125.508 201.715C123.304 202.986 121.5 204.169 121.5 204.342C121.5 205.653 130.854 215.511 135.165 218.743C137.324 220.362 136.96 220.603 139.716 215.737C141.809 212.043 142.969 210.948 144.846 210.895C146.982 210.834 148.347 211.772 149 213.751C149.537 215.379 149.441 215.76 147.707 218.88C146.677 220.733 145.526 222.728 145.151 223.312C144.495 224.331 144.624 224.437 148.358 225.934C153.117 227.841 159.012 229.371 163.292 229.809L166.5 230.138V225.113V220.089L168.091 218.75C170.021 217.125 172.152 217.32 173.875 219.277C174.874 220.413 175 221.09 175 225.347V230.138L178.207 229.809C183.526 229.264 194.519 226.001 196.192 224.47C196.439 224.244 195.612 222.324 194.317 220.114C193.042 217.94 192 215.575 192 214.859C192 212.82 193.947 210.916 196.095 210.856C198.455 210.789 199.13 211.405 201.837 216.098C203.249 218.547 204.306 219.878 204.67 219.668C208.628 217.379 217.486 208.525 219.672 204.672C219.875 204.315 218.492 203.211 216.042 201.775C211.289 198.988 210.9 198.563 210.9 196.155C210.9 193.955 212.76 192 214.853 192C215.567 192 217.942 193.033 220.131 194.295C222.319 195.557 224.282 196.401 224.492 196.17C226.006 194.508 229.269 183.485 229.809 178.207L230.138 175H225.347C221.09 175 220.413 174.874 219.277 173.875C217.32 172.152 217.125 170.021 218.75 168.091L220.089 166.5H225.113H230.138L229.809 163.292C229.382 159.124 227.99 153.738 226.015 148.618L224.434 144.517L221.842 146.047C216.776 149.037 215.293 149.55 213.508 148.928C211.562 148.249 210.259 145.693 210.946 143.899C211.517 142.406 212.548 141.546 216.5 139.27C218.287 138.24 219.83 137.322 219.928 137.229C220.306 136.871 215.436 131.081 211.931 127.723C207.413 123.394 204.697 121.319 204.062 121.711C203.797 121.875 202.75 123.494 201.735 125.31C199.412 129.462 198.374 130.5 196.541 130.5C194.399 130.5 193.549 130.045 192.731 128.464C191.641 126.355 191.799 125.615 194.253 121.317C195.489 119.154 196.5 117.303 196.5 117.202C196.5 116.261 186.368 112.826 181.17 112.004C179.289 111.707 177.131 111.365 176.375 111.244L175 111.025V115.537C175 120.228 174.299 122.586 172.727 123.189C170.988 123.857 168.935 123.48 167.727 122.272C166.587 121.132 166.5 120.689 166.5 116.022C166.5 112.305 166.337 111.016 165.875 111.061C165.531 111.094 163.97 111.309 162.407 111.539ZM167.536 133.817C166.53 135.096 166.5 135.674 166.5 153.765V172.396L168.142 173.823C169.045 174.608 172.638 177.132 176.125 179.434C181.898 183.243 182.623 183.588 184.218 183.289C186.238 182.91 187.5 181.398 187.5 179.356C187.5 177.019 186.756 176.23 180.747 172.194L175 168.334V152.142C175 132.793 174.929 132.5 170.245 132.5C169.034 132.5 168.287 132.863 167.536 133.817Z" stroke="white" stroke-width="2.4" mask="url(#path-1-outside-1_26_26)"/>
</g>
<defs>
<clipPath id="clip0_26_26">
<rect width="256" height="256" fill="white"/>
</clipPath>
</defs>
</svg>
