<svg width="512" height="512" viewBox="0 0 512 512" fill="none" xmlns="http://www.w3.org/2000/svg">
<path d="M129.5 480.5C127.3 479.7 125.4 479 125.3 479C125.2 479 123.9 477.3 122.5 475.3C118 468.5 119.8 458.8 126.4 454.4L129 452.8L126.3 449.6C124.9 447.9 123.1 445 122.3 443.3C121.1 440.2 112 327.2 112 314.3C112 307.9 113 305.2 117.1 300.6C121.8 295.1 127.1 292.9 136.2 292.3L144 291.7V281.6C144.1 261.1 149.2 247.5 161.8 235C174.8 222.1 185 218.2 208.8 217.3L224.1 216.7L225.7 213.6C228 209.3 228 198.7 225.7 192.9C224.4 189.4 222.4 187 217.9 183.5C214.6 180.9 210.2 176.5 208.1 173.6C203.6 167.7 187.8 137.5 184.3 128.1C179 114 177.4 95.6 180.5 83.5C188.3 52.8 220 30.8 256.4 30.9C277.1 30.9 293.4 37.9 303.4 51C306.4 54.9 307.8 55.9 311.1 56.4C322.8 58.3 332.2 67.4 335.6 80.2C340.6 99 332.4 131.5 318.4 148.7C316.5 151 314.3 154.8 313.4 157.2C310.2 166.3 301.2 178.5 294.1 183.5C291.7 185.1 288.9 188.2 287.8 190.4C285 195.8 284.2 208.1 286.3 213.1L287.8 216.7L303.1 217.3C327 218.2 337.2 222.1 350.2 235C362.8 247.5 367.9 261.1 368 281.6V291.7L375.8 292.3C384.9 292.9 390.2 295.1 394.9 300.6C399 305.2 400 307.9 400 314.3C400 317.2 398 346.5 395.5 379.6C390.8 442.3 390.6 443.7 385.5 449.8L383 452.8L385.6 454.4C394.3 460.2 393.9 474.2 384.9 479.5C381.6 481.5 379.5 481.5 257.5 481.7C151.3 481.9 132.9 481.7 129.5 480.5ZM380.6 475C384.4 473.5 385.9 471.2 386 466.7C386 464 385.3 462.2 383.5 460.5C381.3 458.2 380.4 458 371.1 458C362.3 458 361.1 458.2 360.6 459.8C360.2 460.8 358.6 463 356.9 464.6C354 467.4 353.6 467.5 342.2 467.8C331.8 468 330.1 467.9 327.2 466C325.4 464.9 323.1 462.6 322.2 461L320.5 458H256H191.5L189.8 461C186.7 466.5 182.7 468 171.2 468C159.1 468 155.2 466.6 152.4 461.4L150.5 458H140.7C131.6 458 130.7 458.2 128.5 460.5C126.7 462.2 126 464 126 466.7C126.1 471 127.6 473.5 131.1 474.9C134.5 476.3 377 476.3 380.6 475ZM182.8 460.4C185.7 458.4 185.8 452.8 183 450C181.3 448.3 179.7 448 171 448C161.6 448 160.7 448.2 158.5 450.5C155.5 453.5 155.4 455.9 158.1 459.4C160.1 461.9 160.5 462 170.4 462C178 462 181.1 461.6 182.8 460.4ZM353.9 459.4C356.6 455.9 356.5 453.5 353.5 450.5C351.3 448.2 350.4 448 341.3 448C329.3 448 327 449.1 327 455C327 460.9 329.3 462 341.6 462C351.5 462 351.9 461.9 353.9 459.4ZM152.2 449C155.3 443.6 159.3 442 170.3 442C181.9 442 185.9 443.4 189.2 448.4L191.5 452L256 451.9H320.5L322.5 448.7C325.8 443.5 330 442 341.5 442C352.8 442 356.7 443.5 359.8 449.1C361.5 452.1 361.6 452.1 368 451.8C375.8 451.4 380 448.9 383.1 442.9C384.9 439.4 385.6 431.8 389.5 379.2C392 346.4 394 317.2 394 314.4C394 308.3 391.3 303.7 386 300.6C382.5 298.5 381.8 298.5 256 298.5C130.2 298.5 129.5 298.5 126 300.6C120.7 303.7 118 308.3 118 314.4C118 317.2 120 346.4 122.5 379.2C127.3 444.2 127.3 444.3 133.7 448.8C137.6 451.5 138.8 451.8 145 451.9C150.1 452 150.6 451.8 152.2 449ZM362 282.2C362 269.3 360.6 262.1 356.5 253.4C350.2 240.3 338.5 230.1 325.1 225.9C316.1 223.2 290.2 222 288 224.2C287.2 225 280 235.4 272.1 247.3C263.3 260.5 257.1 269 256.1 269C255.1 269 248.4 259.9 239 245.8L223.6 222.7L208.5 223.3C197.6 223.7 191.7 224.4 186.9 225.9C173.5 230.1 161.4 240.7 155.4 253.5C151.4 262.2 150 269.6 150 282.2V292H256H362V282.2ZM269.9 240.1L283.2 220.2L281.3 216.9C279.9 214.2 279.5 211.3 279.5 202.9V192.4L273.5 194.4C264.9 197.2 247 197.2 238.3 194.3L232 192.2L232.7 194.9C234.1 199.8 233.4 210.4 231.3 215.6L229.3 220.7L242.4 240.3C249.6 251.1 255.8 259.9 256.1 260C256.4 260 262.7 251 269.9 240.1ZM267.5 189.5C278.5 187.2 286.4 182.7 295.1 174.1C300.5 168.7 303.7 164.5 306.1 159.5C309.3 152.8 309.5 152 309.4 142C309.3 129.6 308.5 126.5 301.5 110C298.6 103.1 295.9 96.3 295.5 94.8L294.8 92.2L289.7 94.5C280.4 98.5 274.6 99.3 251 99.5C238.6 99.6 227.2 100.1 225.5 100.5C210.2 104.5 203.9 116.7 203.6 142.5C203.5 153.9 203.6 154.8 206.5 160.5C210.6 168.9 222.6 180.7 231 184.8C242.8 190.6 254.9 192.2 267.5 189.5ZM199 126C200.9 113 207.3 102.5 216 98C223.3 94.3 228 93.7 251.5 93.5C276.8 93.3 282 92.4 291.5 87C294.3 85.4 297.1 84.4 297.7 84.8C298.4 85.2 299.9 88.6 301 92.3C302.2 96.1 305.3 104.1 308 110.3C310.7 116.5 313.4 124.4 314 128C314.7 131.6 315.5 136.1 315.9 138L316.6 141.5L319.4 136.7C327.1 123.7 331.4 106.3 330.8 91C330.5 82.6 330 80.4 327.4 75.4C323.7 68.1 317.3 63.4 309.7 62.4C306.4 61.9 304 61 302.8 59.6C292.7 47.9 290.2 45.7 283.5 42.5C274.4 38.2 267.8 36.9 255 36.9C227.5 37 201.7 51.3 191.1 72.4C186.2 82.2 184.7 89.8 185.3 102.5C185.8 114.3 187.7 121.8 193.4 134.5L196.5 141.5L197.2 137.5C197.5 135.3 198.3 130.1 199 126Z" fill="#FF6501" stroke="#FF6501" stroke-width="9"/>
</svg>
