<svg width="512" height="512" viewBox="0 0 512 512" fill="none" xmlns="http://www.w3.org/2000/svg">
<g clip-path="url(#clip0_14_79)">
<path fill-rule="evenodd" clip-rule="evenodd" d="M31.2602 27.107C19.4732 29.072 9.18423 36.817 3.78123 47.794L0.500234 54.458V255.979V457.5L3.16023 463.175C8.56923 474.713 19.4172 482.889 32.0342 484.936C41.0402 486.397 470.96 486.397 479.966 484.936C492.894 482.838 504.753 473.622 508.946 462.414C510.076 459.395 511 456.293 511 455.522C511 454.75 511.45 453.84 512 453.5C512.661 453.091 513 385.803 513 254.882C513 123.137 512.665 57.089 512 57.5C511.45 57.84 511 57.143 511 55.952C511 54.761 509.658 50.974 508.017 47.536C502.86 36.73 492.336 29.071 479.862 27.047C471.935 25.761 38.9882 25.819 31.2602 27.107ZM31.7492 43.407C25.1442 45.192 21.3032 48.563 17.9672 55.5C16.1882 59.2 16.0422 62.029 16.0222 93.25L16.0002 127H256H496L495.978 93.25C495.954 56.029 495.804 55.014 489.393 48.61C482.762 41.986 502.374 42.519 258 42.312C80.3672 42.161 35.5592 42.378 31.7492 43.407ZM0.490234 256C0.490234 365.175 0.607234 409.837 0.750234 355.25C0.893234 300.662 0.893234 211.337 0.750234 156.75C0.607234 102.162 0.490234 146.825 0.490234 256ZM65.4592 63.312C56.5702 67.548 52.0002 74.86 52.0002 84.846C52.0002 94.342 55.6722 100.965 63.4712 105.536C75.2582 112.444 90.4162 108.007 96.5792 95.843C98.8502 91.362 99.1532 89.693 98.8352 83.397C98.5252 77.262 97.9962 75.456 95.4532 71.837C88.5342 61.992 75.8142 58.377 65.4592 63.312ZM127 62.307C122.092 63.854 113.721 72.522 112.216 77.616C108.83 89.077 113.745 100.666 124.357 106.248C132.972 110.778 145.315 108.603 152.191 101.342C161.073 91.963 161.117 78.796 152.299 68.988C145.827 61.79 136.477 59.32 127 62.307ZM184.459 63.312C175.57 67.548 171 74.86 171 84.846C171 94.342 174.672 100.965 182.471 105.536C194.258 112.444 209.416 108.007 215.579 95.843C217.85 91.362 218.153 89.693 217.835 83.397C217.525 77.262 216.996 75.456 214.453 71.837C207.534 61.992 194.814 58.377 184.459 63.312ZM70.6352 79.073C68.6022 80.671 68.0002 82.027 68.0002 85C68.0002 87.973 68.6022 89.329 70.6352 90.927C72.0842 92.067 74.2732 93 75.5002 93C76.7272 93 78.9162 92.067 80.3652 90.927C82.3982 89.329 83.0002 87.973 83.0002 85C83.0002 82.027 82.3982 80.671 80.3652 79.073C78.9162 77.933 76.7272 77 75.5002 77C74.2732 77 72.0842 77.933 70.6352 79.073ZM129.455 79.455C126.482 82.427 126.249 86.851 128.893 90.116C131.57 93.422 138.43 93.422 141.107 90.116C145.283 84.96 141.577 77 135 77C133.052 77 131.002 77.907 129.455 79.455ZM189.635 79.073C187.602 80.671 187 82.027 187 85C187 87.973 187.602 89.329 189.635 90.927C191.084 92.067 193.273 93 194.5 93C195.727 93 197.916 92.067 199.365 90.927C201.398 89.329 202 87.973 202 85C202 82.027 201.398 80.671 199.365 79.073C197.916 77.933 195.727 77 194.5 77C193.273 77 191.084 77.933 189.635 79.073ZM250.635 79.073C248.602 80.671 248 82.027 248 85C248 87.973 248.602 89.329 250.635 90.927C253.261 92.993 253.608 93 354 93C454.392 93 454.739 92.993 457.365 90.927C461.087 88 461.087 82 457.365 79.073C454.739 77.007 454.392 77 354 77C253.608 77 253.261 77.007 250.635 79.073ZM16.0222 297.75C16.0432 445.463 16.1272 452.682 17.8712 456.5C20.2032 461.606 25.3322 466.599 29.9172 468.228C35.1862 470.099 476.814 470.099 482.083 468.228C486.668 466.599 491.797 461.606 494.129 456.5C495.873 452.682 495.957 445.463 495.978 297.75L496 143H256H16.0002L16.0222 297.75ZM72.1232 180.99C66.9592 182.228 60.9102 187.015 58.3272 191.907L56.0002 196.315V253.697C56.0002 308.199 56.0962 311.266 57.9082 314.79C60.1462 319.141 64.2022 323.117 68.7352 325.404C71.6592 326.879 79.4762 327.01 149.899 326.768L227.829 326.5L232.11 323.491C234.702 321.669 237.398 318.524 238.945 315.517L241.5 310.553V253.526C241.5 199.771 241.393 196.299 239.633 193C237.01 188.083 234.135 185.147 229.5 182.653C225.515 180.508 225.218 180.499 150.5 180.34C109.25 180.252 73.9802 180.544 72.1232 180.99ZM74.0892 197.75C71.9622 199.495 71.9572 199.626 72.2282 244.253L72.5002 289.005L85.5002 270.884C92.6502 260.918 99.3882 252.142 100.473 251.382C103.234 249.447 107.26 249.662 109.63 251.87C110.733 252.898 117.606 262.12 124.902 272.362C132.198 282.605 138.552 291.223 139.022 291.514C139.493 291.804 149.3 278.87 160.817 262.771C172.334 246.672 182.668 232.683 183.781 231.684C185.175 230.432 187 229.966 189.652 230.184C193.418 230.493 193.814 230.935 208.269 250.962C216.392 262.217 223.681 272.342 224.467 273.462C225.716 275.244 225.902 270.821 225.948 238.205L226 200.909L223.545 198.455L221.091 196H148.656C81.1502 196 76.0762 196.119 74.0892 197.75ZM135 204.983C123.374 207.131 114.725 219.009 116.443 230.467C117.371 236.656 121.995 243.325 127.672 246.662C137.533 252.458 150.868 249.597 157.269 240.313C160.404 235.767 162.221 228.413 161.344 223.819C158.933 211.177 147.135 202.741 135 204.983ZM278.174 219.314C274.006 223.751 276.245 231.043 282.225 232.505C283.476 232.811 322.227 232.935 368.339 232.781L452.177 232.5L454.089 230.139C456.742 226.862 456.558 221.873 453.686 219.174L451.371 217H365.86H280.349L278.174 219.314ZM136.242 221.034C130.942 223.164 131.093 230.718 136.485 233.175C141.716 235.558 147.27 229.88 144.866 224.606C144.02 222.748 139.879 219.696 138.703 220.063C138.591 220.098 137.484 220.535 136.242 221.034ZM168.709 279.193C149.589 305.842 149.231 306.432 150.849 308.662L152.5 310.937L187.727 310.969L222.954 311L224.554 308.558C225.434 307.215 226.007 305.302 225.827 304.308C225.473 302.353 189.917 252.066 188.86 252.025C188.507 252.011 179.439 264.237 168.709 279.193ZM90.9522 290.634C83.5532 300.905 77.3502 309.689 77.1672 310.154C76.9832 310.619 89.4642 311 104.901 311H132.968L120.339 293.25C113.393 283.488 106.966 274.703 106.057 273.73C104.498 272.06 103.639 273.021 90.9522 290.634ZM278.455 277.455C276.907 279.002 276 281.052 276 283C276 284.948 276.907 286.998 278.455 288.545L280.909 291H365.82C450.207 291 450.747 290.987 453.365 288.927C457.087 286 457.087 280 453.365 277.073C450.747 275.013 450.207 275 365.82 275H280.909L278.455 277.455ZM61.5012 359.066C59.8522 359.558 57.9392 360.73 57.2512 361.671C55.3292 364.299 55.7232 369.723 58.0002 372C59.9862 373.986 61.3332 374 256 374C450.667 374 452.014 373.986 454 372C456.162 369.838 456.634 365.053 454.988 361.978C454.432 360.938 452.294 359.62 450.238 359.049C445.505 357.735 65.9112 357.751 61.5012 359.066ZM58.1742 419.314C55.4712 422.192 55.3552 426.982 57.9122 430.139L59.8232 432.5H256H452.177L454.088 430.139C456.742 426.862 456.558 421.873 453.686 419.174L451.371 417H255.86H60.3492L58.1742 419.314Z" fill="#FF6501"/>
</g>
<defs>
<clipPath id="clip0_14_79">
<rect width="512" height="512" fill="white"/>
</clipPath>
</defs>
</svg>
