<svg width="256" height="256" viewBox="0 0 256 256" fill="none" xmlns="http://www.w3.org/2000/svg">
<path fill-rule="evenodd" clip-rule="evenodd" d="M34.6089 19.0911C33.6744 20.0256 33.7474 42.1681 34.6874 42.9481C35.1699 43.3486 38.8609 43.4786 47.0624 43.3846L58.7499 43.2501V31.0001V18.7501L46.9839 18.6161C38.2519 18.5171 35.0604 18.6396 34.6089 19.0911ZM72.6944 20.6711C71.7219 21.5076 71.3334 22.3151 71.3334 23.5001C71.3334 24.6851 71.7219 25.4926 72.6944 26.3291L74.0559 27.5001H100.55H127.045L128.272 26.2726C129.046 25.4991 129.5 24.4741 129.5 23.5001C129.5 22.5261 129.046 21.5011 128.272 20.7276L127.045 19.5001H100.55H74.0559L72.6944 20.6711ZM72.6944 35.6711C71.7219 36.5076 71.3334 37.3151 71.3334 38.5001C71.3334 39.6851 71.7219 40.4926 72.6944 41.3291L74.0559 42.5001H116.066H158.077L159.538 41.0386C160.342 40.2346 161 39.2326 161 38.8121C161 37.3926 159.897 35.6141 158.671 35.0551C157.809 34.6626 145.249 34.5001 115.754 34.5001H74.0559L72.6944 35.6711ZM8.55993 44.1781C8.14643 44.6761 8.03093 70.3646 8.12343 141.053L8.24993 237.25L112.447 237.376C189.051 237.469 216.824 237.354 217.322 236.94C218.266 236.157 218.269 228.346 217.325 227.563C216.833 227.155 189.83 226.969 117.7 226.876L18.7499 226.75L18.6234 135.8C18.5314 69.5846 18.3449 44.6656 17.9374 44.1746C17.1544 43.2311 9.34343 43.2336 8.55993 44.1781ZM34.6089 59.0911C33.6744 60.0256 33.7474 82.1681 34.6874 82.9481C35.1699 83.3486 38.8609 83.4786 47.0624 83.3846L58.7499 83.2501V71.0001V58.7501L46.9839 58.6161C38.2519 58.5171 35.0604 58.6396 34.6089 59.0911ZM72.6944 60.6711C71.7219 61.5076 71.3334 62.3151 71.3334 63.5001C71.3334 64.6851 71.7219 65.4926 72.6944 66.3291L74.0559 67.5001H100.55H127.045L128.272 66.2726C129.046 65.4991 129.5 64.4741 129.5 63.5001C129.5 62.5261 129.046 61.5011 128.272 60.7276L127.045 59.5001H100.55H74.0559L72.6944 60.6711ZM178 66.0661C174.287 66.2396 170.051 66.4086 168.586 66.4411C166.33 66.4911 165.691 66.7316 164.41 68.0126C162.609 69.8136 162.755 71.5526 164.866 73.4346C166.072 74.5101 166.532 74.5976 169.864 74.3836C171.882 74.2541 173.47 74.3186 173.392 74.5266C173.314 74.7351 166.443 80.9956 158.123 88.4396C143.967 101.105 142.914 101.943 141.715 101.487C138.161 100.136 132.879 101.46 130.172 104.382L128.97 105.678L116.11 103.013C102.747 100.243 101.5 99.8856 101.5 98.8306C101.5 98.4816 100.822 97.1281 99.9949 95.8226C96.6259 90.5106 88.9339 89.4546 84.1579 93.6481C81.7214 95.7871 80.5304 98.5751 80.4834 102.25L80.4449 105.25L69.1209 114C62.8929 118.813 55.9669 124.16 53.7299 125.884L49.6634 129.017L47.8474 128.259C41.2734 125.512 33.4999 130.884 33.4999 138.174C33.4999 148.217 45.7524 152.859 52.3694 145.323C54.3199 143.101 55.1719 140.491 54.9019 137.567L54.6874 135.25L70.1974 123.166C85.5794 111.181 85.7179 111.087 87.0784 111.791C88.8889 112.727 93.0679 112.694 95.3909 111.725C96.4134 111.298 97.9724 110.25 98.8559 109.395L100.462 107.841L113.106 110.461C120.06 111.901 126.087 113.173 126.5 113.287C126.912 113.401 127.662 114.498 128.165 115.726C131.516 123.891 142.893 124.713 147.361 117.112C148.552 115.087 148.743 114.238 148.699 111.159L148.649 107.568L163.627 94.1591C171.865 86.7841 178.758 80.6911 178.945 80.6196C179.131 80.5476 179.066 82.0701 178.798 84.0031C178.487 86.2541 178.485 88.0081 178.793 88.8826C179.758 91.6276 183.737 92.1286 185.325 89.7051C185.758 89.0441 186.758 84.2546 187.616 78.7286C189.136 68.9451 189.137 68.9221 188.16 67.6146C186.843 65.8496 185.851 65.6986 178 66.0661ZM72.6944 75.6711C71.7219 76.5076 71.3334 77.3151 71.3334 78.5001C71.3334 79.6851 71.7219 80.4926 72.6944 81.3291L74.0559 82.5001H116.066H158.077L159.538 81.0386C160.342 80.2346 161 79.2326 161 78.8121C161 77.3926 159.897 75.6141 158.671 75.0551C157.809 74.6626 145.249 74.5001 115.754 74.5001H74.0559L72.6944 75.6711ZM173.285 100.786C172.692 101.379 172.5 102.633 172.499 105.911L172.499 110.25L177.612 110.075C183.506 109.873 188.572 110.574 193.624 112.293C195.577 112.957 197.248 113.5 197.337 113.5C197.427 113.5 197.5 110.816 197.5 107.536C197.5 102.781 197.34 101.412 196.714 100.786C195.54 99.6116 174.459 99.6116 173.285 100.786ZM171.25 118.741C163.804 120.383 157.307 124.125 152 129.828C145.613 136.691 142.526 144.02 142.114 153.302C141.812 160.086 142.744 164.928 145.473 170.75C150.988 182.517 161.528 190.224 174.541 192.006C183.307 193.206 192.729 190.844 200.596 185.474L203.583 183.435L209.054 188.826C212.908 192.624 214.426 194.443 214.191 194.983C213.363 196.893 213.408 198.57 214.315 199.583C214.829 200.157 219.902 205.098 225.587 210.563C234.031 218.68 236.183 220.501 237.337 220.504C239.297 220.509 248 211.63 248 209.625C248 208.288 244.735 204.847 230.442 191.118C225.441 186.314 224.213 185.734 221.992 187.121C221.09 187.684 220.476 187.221 215.393 182.138L209.789 176.534L211.849 172.642C219.115 158.917 217.406 142.951 207.381 130.905C202.732 125.319 194.628 120.471 187.151 118.803C182.864 117.847 175.438 117.818 171.25 118.741ZM172.284 129.266C160.639 132.462 152.525 143.028 152.506 155.02C152.482 170.006 164.252 181.742 179.25 181.687C195.961 181.627 208.692 166.139 205.296 150C203.148 139.791 195.625 131.843 185.648 129.245C182.167 128.338 175.628 128.349 172.284 129.266ZM79.0999 134.1C78.6434 134.557 78.4999 143.994 78.4999 173.523C78.4999 210.498 78.5434 212.385 79.4144 213.173C80.2054 213.889 81.7764 214 91.0689 214C99.5549 214 102.012 213.851 102.779 213.291C103.726 212.599 103.75 211.609 103.75 173.522C103.75 139.348 103.656 134.404 103 133.99C101.844 133.259 79.8394 133.361 79.0999 134.1ZM189.192 144.1C188.399 144.705 185.275 147.451 182.25 150.2C179.225 152.95 176.135 155.756 175.384 156.435L174.018 157.67L171.046 154.835C167.604 151.552 165.799 151.156 163.727 153.228C161.514 155.44 162.003 156.634 167.343 162.07C173.123 167.953 174.129 168.25 177.636 165.105C194.316 150.148 195.5 148.96 195.5 147.185C195.5 145.116 193.649 143 191.84 143C191.177 143 189.986 143.495 189.192 144.1ZM126.285 151.286C125.589 151.983 125.5 155.478 125.5 182.208C125.5 210.77 125.548 212.389 126.414 213.173C127.205 213.888 128.768 214 137.947 214C144.31 214 148.953 213.793 149.533 213.483C150.445 212.994 150.5 212.324 150.5 201.592V190.219L147.456 187.235C138.92 178.864 134.631 169.094 134.129 156.875L133.867 150.5H130.469C128.047 150.5 126.846 150.726 126.285 151.286ZM32.2854 176.786C31.6014 177.47 31.4999 179.819 31.4999 194.958C31.4999 211.168 31.5619 212.401 32.4144 213.173C33.2059 213.889 34.7834 214 44.1644 214C54.3334 214 55.0614 213.939 55.9999 213C56.9604 212.04 56.9999 211.334 56.9999 195.112C56.9999 180.635 56.8889 178.064 56.2214 177.112C55.4569 176.019 55.2499 176 44.2574 176C34.7549 176 32.9529 176.119 32.2854 176.786ZM195.5 197.304C191.308 199.135 185.348 200.164 178.875 200.175L172.5 200.186V206.307C172.5 211.206 172.657 212.586 173.285 213.215C174.459 214.389 195.54 214.389 196.714 213.215C197.363 212.566 197.5 211.038 197.5 204.465C197.5 200.084 197.443 196.509 197.375 196.52C197.306 196.531 196.462 196.883 195.5 197.304Z" fill="white"/>
</svg>
