<svg width="512" height="512" viewBox="0 0 512 512" fill="none" xmlns="http://www.w3.org/2000/svg">
<path fill-rule="evenodd" clip-rule="evenodd" d="M245.147 48.742C227.764 66.969 215.781 90.226 211.914 113.241L210.621 120.932L131.561 121.216L52.5 121.5L48.306 123.742C46 124.974 42.541 127.601 40.621 129.579C33.574 136.834 34 127.019 34 282.178V422H24.155C10.714 422 9.443 423.499 12.115 436.201C15.56 452.582 28.551 466.341 44.46 470.458C49.737 471.823 73.997 472 256 472C438.003 472 462.263 471.823 467.54 470.458C483.449 466.341 496.44 452.582 499.885 436.201C502.552 423.521 501.244 422 487.671 422H478V282.178C478 127.019 478.426 136.834 471.379 129.579C469.459 127.601 466 124.974 463.694 123.742L459.5 121.5L380.5 121.214L301.5 120.928L299.721 111.797C294.982 87.478 283.127 65.247 265.038 46.76C260.431 42.052 257.677 39.997 255.962 39.992C254.164 39.985 251.248 42.344 245.147 48.742ZM248.893 59.205C243.036 66.009 235 77.47 235 79.018C235 80.842 246.954 83.436 255.5 83.467C264.046 83.498 277 80.805 277 78.997C277 76.264 258.125 52 256 52C255.501 52 252.303 55.242 248.893 59.205ZM228.467 91.732C213.85 126.717 216.02 169.074 236.127 241.25L240.236 256H256H271.764L275.873 241.25C288.893 194.515 293.831 163.92 292.699 137C291.933 118.778 289.46 106.787 283.189 90.899L282.163 88.298L274.831 90.827C268.646 92.96 265.702 93.356 256 93.356C246.309 93.356 243.351 92.959 237.197 90.836L229.894 88.317L228.467 91.732ZM244.444 117.374C224.411 126.702 224.34 155.333 244.325 165.668C248.398 167.774 258.445 168.509 263.708 167.084C269.732 165.454 276.06 160.245 279.292 154.254C289.128 136.026 276.657 115.02 256 115.02C251.272 115.02 248.121 115.661 244.444 117.374ZM252.123 125.042C247.275 126.129 243.827 128.976 241.25 134.02C238.528 139.347 238.438 143.166 240.905 148.599C246.051 159.93 262.693 161.338 269.726 151.037C278.437 138.276 267.187 121.662 252.123 125.042ZM54.619 132.034C53.035 132.509 50.63 133.933 49.274 135.198C43.68 140.423 44 131.481 44 282.45V422H256H468V282.148V142.296L465.75 138.99C464.512 137.172 462.23 134.743 460.677 133.592C457.878 131.517 457.209 131.498 380.427 131.226L303 130.952V137.976V145H376.277C440.981 145 449.815 145.182 451.777 146.557L454 148.113V276.857C454 375.657 453.721 405.879 452.8 406.8C451.054 408.546 60.946 408.546 59.2 406.8C58.279 405.879 58 375.657 58 276.857V148.113L60.223 146.557C62.185 145.182 71.019 145 135.723 145H209V138V131L133.25 131.086C91.587 131.133 56.204 131.56 54.619 132.034ZM68 276.5V398H80.127H92.255L88.041 393.428C85.723 390.914 82.634 386.301 81.177 383.178C78.797 378.077 78.526 376.33 78.514 365.979C78.501 355 78.652 354.149 81.734 347.89C90.804 329.464 112.366 319.968 131.757 325.858C140.23 328.431 149.518 334.965 153.592 341.219L156.491 345.668L163.495 345.228C168.835 344.892 171.926 345.277 176.5 346.847L182.5 348.907L184.274 346.535C188.788 340.499 202.69 334 211.087 334C214.625 334 214.891 333.767 216.395 329.355C219.746 319.52 228.38 309.655 236.963 305.856L240 304.512V285.256V266H236.953C234.616 266 233.511 265.303 232.203 263.006C231.267 261.36 230.214 260.01 229.864 260.006C229.514 260.003 226.543 261.793 223.262 263.984C215.138 269.409 203.203 282.172 199.223 289.691C195.79 296.176 193.414 297.827 190.081 296.043C187.233 294.519 186.636 289.717 187.289 273.592C188.332 247.871 195.159 230.61 212.053 210.976L216.807 205.451L214.962 196.476C212.508 184.541 210 167.218 210 162.203C210 154.304 216.915 155 138.393 155H68V276.5ZM302.628 158.25C302.374 160.037 301.424 167.417 300.517 174.649C299.61 181.881 298.046 191.742 297.042 196.561L295.217 205.325L302.606 214.412C317.087 232.219 323.606 249.523 324.701 273.057C325.409 288.284 324.642 294.586 321.901 296.053C318.586 297.827 316.204 296.165 312.785 289.691C309.078 282.671 295.318 268.203 287.579 263.189C284.872 261.435 282.397 260.003 282.079 260.006C281.76 260.01 280.733 261.36 279.797 263.006C278.489 265.303 277.384 266 275.047 266H272V285.256V304.512L275.037 305.856C283.62 309.655 292.254 319.52 295.605 329.355C297.109 333.767 297.375 334 300.913 334C309.31 334 323.212 340.499 327.726 346.535L329.5 348.907L335.5 346.847C340.074 345.277 343.165 344.892 348.505 345.228L355.509 345.668L358.408 341.219C362.482 334.965 371.77 328.431 380.243 325.858C399.634 319.968 421.196 329.464 430.266 347.89C433.348 354.149 433.499 355 433.486 365.979C433.474 376.33 433.203 378.077 430.823 383.178C429.366 386.301 426.277 390.914 423.959 393.428L419.745 398H431.873H444V276.5V155H373.545H303.091L302.628 158.25ZM214.624 223.54C205.202 235.399 199.008 251.206 197.398 267.5L196.707 274.5L205.603 265.967C212.839 259.028 217.982 255.206 227.7 249.549C227.877 249.446 220.623 221.369 219.717 218.65C219.52 218.061 217.229 220.261 214.624 223.54ZM288.51 232.74C286.414 240.858 284.559 247.95 284.387 248.5C284.215 249.05 287.32 251.516 291.287 253.981C295.254 256.445 302.268 262.07 306.873 266.481L315.247 274.5L314.507 267C313.67 258.507 309.998 244.903 306.863 238.678C303.993 232.979 296.556 221.813 294.226 219.705C292.372 218.027 292.218 218.379 288.51 232.74ZM250.712 266.622C250.32 267.013 249.993 276.821 249.985 288.417C249.976 300.012 249.639 309.999 249.235 310.608C248.831 311.217 246.37 312.651 243.767 313.794C233.613 318.253 227.054 325.979 224.884 336.039C223.288 343.436 221.374 344.996 214.731 344.316C204.966 343.315 195.247 347.94 189.257 356.438C185.682 361.51 183.404 362.119 179.154 359.139C173.147 354.927 168.07 354.395 154.818 356.592C151.204 357.192 151.089 357.109 148.534 352.067C141.007 337.214 123.849 330.339 108.5 336.026C100.49 338.994 92.019 347.417 89.541 354.878C87.343 361.495 87.314 370.42 89.47 376.911C91.587 383.285 98.694 391.271 105.392 394.805L110.5 397.5H256H401.5L406.608 394.805C413.306 391.271 420.413 383.285 422.53 376.911C424.686 370.42 424.657 361.495 422.459 354.878C419.981 347.417 411.51 338.994 403.5 336.026C395.855 333.193 385.868 333.582 378.691 336.991C372.709 339.833 366.018 346.417 363.55 351.889C361.419 356.616 358.714 357.793 353.868 356.104C347.409 353.852 338.635 355.124 332.846 359.153C328.629 362.087 326.457 361.479 322.473 356.25C315.794 347.483 307.03 343.316 297.354 344.307C290.824 344.976 288.489 343.46 287.613 337.982C285.98 327.77 278.871 318.633 269.148 314.25C266.042 312.849 263.275 311.509 263 311.271C262.725 311.033 262.275 300.862 262 288.669L261.5 266.5L256.462 266.205C253.69 266.043 251.103 266.23 250.712 266.622ZM22.447 436.49C25.448 446.46 31.663 453.895 41 458.681L46.5 461.5H256H465.5L471 458.681C480.337 453.895 486.552 446.46 489.553 436.49L490.904 432H402.08H313.256L312.643 435.828C311.791 441.158 307.011 447.332 301.774 449.867C297.495 451.939 296.183 452 256 452C215.817 452 214.505 451.939 210.226 449.867C204.989 447.332 200.209 441.158 199.357 435.828L198.744 432H109.92H21.096L22.447 436.49ZM209.022 433.75C209.05 435.938 211.808 439.412 214.684 440.883C216.183 441.649 229.149 442 256 442C282.851 442 295.817 441.649 297.316 440.883C300.192 439.412 302.95 435.938 302.978 433.75C302.999 432.108 300.104 432 256 432C211.896 432 209.001 432.108 209.022 433.75Z" fill="#FF6501"/>
</svg>
