<svg width="512" height="512" viewBox="0 0 512 512" fill="none" xmlns="http://www.w3.org/2000/svg">
<mask id="path-1-outside-1_14_77" maskUnits="userSpaceOnUse" x="25.5" y="10.0775" width="462" height="492" fill="black">
<rect fill="white" x="25.5" y="10.0775" width="462" height="492"/>
<path fill-rule="evenodd" clip-rule="evenodd" d="M134.773 12.555C125.897 14.707 119.102 18.683 111.988 25.89C104.722 33.252 100.357 41.188 98.658 50.13L97.566 55.875L73.533 56.187C49.566 56.499 49.484 56.508 43.839 59.28C37.623 62.333 32.328 67.585 28.793 74.205L26.5 78.5V128.5V178.5L29.468 183.859C32.829 189.927 38.213 194.938 44.924 198.245C49.181 200.343 51.172 200.535 73.5 201L97.5 201.5L97.765 230.615L98.03 259.729L91.249 260.214C79.085 261.085 70.237 266.744 65.29 276.818L62.5 282.5L62.208 324.351C61.871 372.794 61.948 373.39 69.725 382.039C75.492 388.453 82.084 391.69 91.211 392.589L98 393.258L98.021 427.379C98.042 460.537 98.108 461.686 100.374 468.107C104.342 479.346 111.451 487.847 122.343 494.378C133.649 501.158 130.816 501 241.311 501C304.751 501 342.675 500.631 346.109 499.979C363.463 496.688 378.965 482.076 383.61 464.632C384.7 460.538 384.979 445.918 384.988 392.335L385 325.17L421.75 324.79C457.576 324.419 458.651 324.35 464.5 322.045C472.542 318.876 480.965 310.383 483.933 302.45C486.027 296.854 486.062 295.748 485.784 244.622L485.5 192.5L482.813 187.408C478.718 179.648 470.268 172.472 462.339 170.023C456.288 168.154 453.099 168 420.432 168H385.074L384.787 107.673L384.5 47.346L380.259 38.789C373.315 24.779 360.528 14.755 346.109 12.021C342.654 11.365 304.886 11.03 240.614 11.083C158.836 11.151 139.451 11.421 134.773 12.555ZM134.836 22.909C131.721 23.911 127.613 25.694 125.708 26.872C117.745 31.793 109.76 43.54 108.312 52.465L107.738 56H114.211H120.683L121.839 52.144C123.31 47.234 130.035 39.563 135.372 36.708L139.5 34.5H241.5H343.5L347.568 36.678C352.446 39.289 358.296 45.542 360.712 50.728C362.31 54.159 362.498 59.623 362.788 111.25L363.106 168H369.076H375.046L374.773 108.728L374.5 49.455L371.226 42.806C367.17 34.569 359.267 27.06 351.247 23.821L345.5 21.5L243 21.294C146.279 21.1 140.181 21.191 134.836 22.909ZM141.001 45.123C137.777 46.409 134.182 49.785 132.409 53.193L131.008 55.886L159.254 56.193C186.907 56.494 187.605 56.552 192.5 58.953C199.529 62.4 206.394 69.765 208.952 76.6C210.998 82.069 211.048 83.532 210.778 129.862L210.5 177.5L208.052 182.474C204.916 188.847 198.847 194.895 192.5 197.971C188.223 200.044 185.548 200.475 174 200.947L160.5 201.5L160.249 221.5C160.013 240.27 159.871 241.605 157.95 243.2C156.779 244.172 155.174 244.625 154.201 244.257C153.266 243.904 147.703 239.652 141.84 234.808C135.977 229.963 130.914 226 130.59 226C130.265 226 130 233.631 130 242.957V259.914L169.75 260.207L209.5 260.5L214.623 263.203C217.441 264.689 221.579 267.987 223.819 270.532C231.074 278.774 231.118 279.14 230.79 328.13L230.5 371.5L227.401 377C224.017 383.007 217.047 388.986 211.174 390.922C209.153 391.588 202.438 392.391 196.25 392.706L185 393.279V411.068C185 425.907 184.739 429.118 183.429 430.429C182.564 431.293 181.099 432 180.172 432C179.245 432 167.836 423.225 154.818 412.5C141.8 401.775 130.891 393 130.575 393C130.259 393 130.02 401.212 130.044 411.25C130.1 434.662 131.352 438.586 140.21 443.106C143.776 444.926 147.721 445 241.5 445C335.279 445 339.224 444.926 342.79 443.106C344.83 442.065 347.33 440.295 348.345 439.173C352.708 434.348 352.91 431.879 352.956 382.75C352.98 356.975 352.611 336 352.132 336C351.655 336 341.708 343.875 330.028 353.5C318.348 363.125 308.276 371.053 307.646 371.118C301.382 371.766 301 370.34 301 346.309V325L291.75 324.992C272.632 324.977 263.827 321.968 255.165 312.49C251.193 308.144 249.543 305.306 247.962 300.1C245.994 293.62 245.923 291.354 246.205 243.924L246.5 194.5L249.125 189C253.018 180.845 258.141 175.549 265.768 171.792L272.452 168.5L312.726 168.198L353 167.895L352.994 114.198C352.991 80.345 352.607 59.126 351.956 56.781C350.632 52.014 346.491 47.103 342.329 45.364C339.644 44.242 321.714 44.011 241.282 44.063C178.802 44.104 142.598 44.487 141.001 45.123ZM50.239 67.335C45.103 69.197 40.428 73.492 37.862 78.703C35.516 83.467 35.498 83.775 35.179 123.797C34.983 148.431 35.262 166.691 35.898 170.773C37.261 179.524 40.766 184.615 47.936 188.25L53.359 191H78.671H103.983L114.741 199.708C120.659 204.498 130.9 212.885 137.5 218.347L149.5 228.278L150 211.056C150.452 195.491 150.687 193.698 152.441 192.417C153.908 191.347 157.976 191 169.077 191C183.216 191 183.974 190.894 189.136 188.207C193.285 186.046 195.242 184.177 197.777 179.957L201.054 174.5L200.777 127.335L200.5 80.17L197.483 75.878C195.6 73.2 192.455 70.536 189.119 68.793L183.772 66L118.636 66.076C71.178 66.132 52.615 66.473 50.239 67.335ZM147.007 81.593C140.135 84.573 136.009 90.224 135.052 97.969L134.5 102.439L116.5 109.586L98.5 116.734L94.81 113.423C88.416 107.688 76.842 107.354 70.211 112.713C64.527 117.307 62.511 121.48 62.505 128.664C62.501 133.921 62.948 135.465 65.542 139.155C69.631 144.974 75.096 147.963 81.685 147.984C88.009 148.004 90.771 147.018 95.139 143.183L98.5 140.232L116.489 147.372L134.477 154.512L135.134 159.103C137.692 176.985 157.878 183.153 169.716 169.67C177.048 161.32 176.141 149.721 167.568 142.194C160.186 135.713 150.436 135.494 142.398 141.629L137.806 145.135L119.849 137.939C102.886 131.143 101.909 130.606 102.196 128.255C102.469 126.021 104.317 125.054 120.231 118.82L137.961 111.875L141.731 114.814C145.679 117.893 150.842 120.004 154.399 119.994C161.292 119.976 169.442 114.905 172.71 108.602C174.844 104.485 174.858 95.359 172.736 91.368C167.682 81.863 156.33 77.55 147.007 81.593ZM147.923 92.923C143.004 97.843 144.085 105.441 150.151 108.578C156.811 112.022 164.455 107.354 164.455 99.841C164.455 96.541 163.857 95.261 161.211 92.898C156.772 88.931 151.906 88.94 147.923 92.923ZM78.971 119.379C74.618 120.786 71.346 126.259 72.385 130.396C74.318 138.101 83.483 140.671 89.077 135.077C96.346 127.808 88.861 116.181 78.971 119.379ZM149.775 148.509C141.522 153.138 144.11 165.4 153.61 166.674C157.172 167.152 158.163 166.826 161.085 164.215C163.874 161.723 164.455 160.498 164.455 157.102C164.455 149.68 156.251 144.878 149.775 148.509ZM272.086 179.706C266.055 181.851 259.672 188.46 257.597 194.709C256.112 199.18 255.958 205.098 256.213 248.119C256.494 295.535 256.543 296.58 258.662 300.5C259.852 302.7 262.327 305.94 264.162 307.699C270.113 313.403 273.706 314.312 292.223 314.794C303.618 315.091 309.266 315.615 309.951 316.44C310.524 317.131 311.073 325.851 311.228 336.738L311.5 355.825L336.239 335.466L360.978 315.106L409.239 314.788C452.113 314.505 457.905 314.28 461.129 312.772C466.753 310.141 470.848 306.213 473.799 300.62L476.5 295.5V247C476.5 208.477 476.218 197.702 475.129 194.619C473.384 189.677 467.797 183.477 462.568 180.678L458.5 178.5L367.5 178.318C287.045 178.158 275.988 178.318 272.086 179.706ZM108 233.468V260H114H120L119.931 238.25L119.862 216.5L113.931 211.718L108 206.935V233.468ZM292 209.29C290.625 209.983 289.353 211.576 289.173 212.83C288.401 218.216 285.17 218 366.587 218C441.372 218 441.938 217.985 443.02 215.962C444.512 213.175 443.333 210.077 440.349 208.943C436.304 207.405 295.084 207.735 292 209.29ZM291.223 242.557C288.805 244.25 288.291 247.891 290.2 249.8C291.112 250.712 309.34 251 366.129 251C432.73 251 441.028 250.829 442.429 249.429C444.535 247.322 444.408 245.408 442 243C440.036 241.036 438.667 241 366.723 241C302.019 241 293.185 241.182 291.223 242.557ZM85.211 271.129C80.754 272.414 74.366 279.021 73.071 283.685C72.408 286.071 72.009 302.212 72.006 326.782C72 369.577 72.087 370.321 77.803 376.339C83.454 382.289 84.378 382.471 110.659 382.827L134.819 383.154L154.659 399.498L174.5 415.841L175 400.467C175.275 392.011 175.95 384.659 176.5 384.129C177.05 383.599 184.062 383.016 192.081 382.833C206.273 382.509 206.792 382.42 211.504 379.5C214.681 377.531 217.145 374.985 218.672 372.093L221 367.685V326.303C221 287.593 220.877 284.681 219.097 281.21C216.692 276.519 213.483 273.518 208.768 271.548C205.56 270.207 197.265 270.012 146.782 270.09C113.32 270.142 87.1 270.584 85.211 271.129ZM360.831 275.25C358.437 277.179 358.006 279.563 359.632 281.885C361.098 283.978 361.527 284 400.902 284C438.178 284 440.795 283.885 442.345 282.171C444.508 279.781 444.433 278.433 442 276C440.069 274.069 438.667 274 401.191 274C371.638 274 362.012 274.298 360.831 275.25ZM118.741 284.368C103.925 289.895 96.774 306.091 101.839 322.647C105.149 333.467 110.444 341.442 122 353.016C133.068 364.102 140.759 369.2 146.413 369.2C156.143 369.2 175.222 352.85 185.894 335.368C195.781 319.17 195.384 301.449 184.902 291.162C179.154 285.521 174.405 283.559 166.5 283.559C159.115 283.559 153.996 285.468 149.178 290.019L146.855 292.213L144.678 290.199C138.292 284.294 126.217 281.579 118.741 284.368ZM120.5 294.412C114.491 297.082 110 304.514 110 311.786C110 321.122 116.168 333.04 126.831 344.31C133.932 351.814 143.523 359 146.439 359C153.049 359 172.46 339.826 178.923 326.913C182.315 320.137 183 317.774 183 312.852C183 305.486 181.328 301.373 176.67 297.284C169.793 291.246 161.003 291.933 154.61 299.01C152.624 301.208 151 303.439 151 303.968C151 304.497 150.1 305.411 149 306C146.243 307.475 143.586 305.889 140.425 300.881C136.223 294.224 127.381 291.354 120.5 294.412ZM363.49 326.25C363.244 326.938 362.921 351.35 362.771 380.5L362.5 433.5L360.111 438.788C357.084 445.485 350.337 451.525 343.672 453.505C336.162 455.735 146.894 455.752 139.388 453.523C133.001 451.626 126.636 446.151 123.245 439.638C120.642 434.64 120.559 433.936 120.184 413.75L119.798 393H113.862H107.926L108.213 427.75L108.5 462.5L111.16 468.175C116.105 478.722 124.812 486.145 136.082 489.422C141.065 490.87 152.172 491.009 243.57 490.769L345.5 490.5L351.247 488.179C359.268 484.94 367.17 477.431 371.226 469.194L374.5 462.544L374.77 393.772L375.04 325H369.489C365.953 325 363.775 325.454 363.49 326.25ZM220.408 470.5C218.891 472.816 218.891 473.184 220.408 475.5L222.046 478H245H267.954L269.592 475.5C271.109 473.184 271.109 472.816 269.592 470.5L267.954 468H245H222.046L220.408 470.5Z"/>
</mask>
<path fill-rule="evenodd" clip-rule="evenodd" d="M134.773 12.555C125.897 14.707 119.102 18.683 111.988 25.89C104.722 33.252 100.357 41.188 98.658 50.13L97.566 55.875L73.533 56.187C49.566 56.499 49.484 56.508 43.839 59.28C37.623 62.333 32.328 67.585 28.793 74.205L26.5 78.5V128.5V178.5L29.468 183.859C32.829 189.927 38.213 194.938 44.924 198.245C49.181 200.343 51.172 200.535 73.5 201L97.5 201.5L97.765 230.615L98.03 259.729L91.249 260.214C79.085 261.085 70.237 266.744 65.29 276.818L62.5 282.5L62.208 324.351C61.871 372.794 61.948 373.39 69.725 382.039C75.492 388.453 82.084 391.69 91.211 392.589L98 393.258L98.021 427.379C98.042 460.537 98.108 461.686 100.374 468.107C104.342 479.346 111.451 487.847 122.343 494.378C133.649 501.158 130.816 501 241.311 501C304.751 501 342.675 500.631 346.109 499.979C363.463 496.688 378.965 482.076 383.61 464.632C384.7 460.538 384.979 445.918 384.988 392.335L385 325.17L421.75 324.79C457.576 324.419 458.651 324.35 464.5 322.045C472.542 318.876 480.965 310.383 483.933 302.45C486.027 296.854 486.062 295.748 485.784 244.622L485.5 192.5L482.813 187.408C478.718 179.648 470.268 172.472 462.339 170.023C456.288 168.154 453.099 168 420.432 168H385.074L384.787 107.673L384.5 47.346L380.259 38.789C373.315 24.779 360.528 14.755 346.109 12.021C342.654 11.365 304.886 11.03 240.614 11.083C158.836 11.151 139.451 11.421 134.773 12.555ZM134.836 22.909C131.721 23.911 127.613 25.694 125.708 26.872C117.745 31.793 109.76 43.54 108.312 52.465L107.738 56H114.211H120.683L121.839 52.144C123.31 47.234 130.035 39.563 135.372 36.708L139.5 34.5H241.5H343.5L347.568 36.678C352.446 39.289 358.296 45.542 360.712 50.728C362.31 54.159 362.498 59.623 362.788 111.25L363.106 168H369.076H375.046L374.773 108.728L374.5 49.455L371.226 42.806C367.17 34.569 359.267 27.06 351.247 23.821L345.5 21.5L243 21.294C146.279 21.1 140.181 21.191 134.836 22.909ZM141.001 45.123C137.777 46.409 134.182 49.785 132.409 53.193L131.008 55.886L159.254 56.193C186.907 56.494 187.605 56.552 192.5 58.953C199.529 62.4 206.394 69.765 208.952 76.6C210.998 82.069 211.048 83.532 210.778 129.862L210.5 177.5L208.052 182.474C204.916 188.847 198.847 194.895 192.5 197.971C188.223 200.044 185.548 200.475 174 200.947L160.5 201.5L160.249 221.5C160.013 240.27 159.871 241.605 157.95 243.2C156.779 244.172 155.174 244.625 154.201 244.257C153.266 243.904 147.703 239.652 141.84 234.808C135.977 229.963 130.914 226 130.59 226C130.265 226 130 233.631 130 242.957V259.914L169.75 260.207L209.5 260.5L214.623 263.203C217.441 264.689 221.579 267.987 223.819 270.532C231.074 278.774 231.118 279.14 230.79 328.13L230.5 371.5L227.401 377C224.017 383.007 217.047 388.986 211.174 390.922C209.153 391.588 202.438 392.391 196.25 392.706L185 393.279V411.068C185 425.907 184.739 429.118 183.429 430.429C182.564 431.293 181.099 432 180.172 432C179.245 432 167.836 423.225 154.818 412.5C141.8 401.775 130.891 393 130.575 393C130.259 393 130.02 401.212 130.044 411.25C130.1 434.662 131.352 438.586 140.21 443.106C143.776 444.926 147.721 445 241.5 445C335.279 445 339.224 444.926 342.79 443.106C344.83 442.065 347.33 440.295 348.345 439.173C352.708 434.348 352.91 431.879 352.956 382.75C352.98 356.975 352.611 336 352.132 336C351.655 336 341.708 343.875 330.028 353.5C318.348 363.125 308.276 371.053 307.646 371.118C301.382 371.766 301 370.34 301 346.309V325L291.75 324.992C272.632 324.977 263.827 321.968 255.165 312.49C251.193 308.144 249.543 305.306 247.962 300.1C245.994 293.62 245.923 291.354 246.205 243.924L246.5 194.5L249.125 189C253.018 180.845 258.141 175.549 265.768 171.792L272.452 168.5L312.726 168.198L353 167.895L352.994 114.198C352.991 80.345 352.607 59.126 351.956 56.781C350.632 52.014 346.491 47.103 342.329 45.364C339.644 44.242 321.714 44.011 241.282 44.063C178.802 44.104 142.598 44.487 141.001 45.123ZM50.239 67.335C45.103 69.197 40.428 73.492 37.862 78.703C35.516 83.467 35.498 83.775 35.179 123.797C34.983 148.431 35.262 166.691 35.898 170.773C37.261 179.524 40.766 184.615 47.936 188.25L53.359 191H78.671H103.983L114.741 199.708C120.659 204.498 130.9 212.885 137.5 218.347L149.5 228.278L150 211.056C150.452 195.491 150.687 193.698 152.441 192.417C153.908 191.347 157.976 191 169.077 191C183.216 191 183.974 190.894 189.136 188.207C193.285 186.046 195.242 184.177 197.777 179.957L201.054 174.5L200.777 127.335L200.5 80.17L197.483 75.878C195.6 73.2 192.455 70.536 189.119 68.793L183.772 66L118.636 66.076C71.178 66.132 52.615 66.473 50.239 67.335ZM147.007 81.593C140.135 84.573 136.009 90.224 135.052 97.969L134.5 102.439L116.5 109.586L98.5 116.734L94.81 113.423C88.416 107.688 76.842 107.354 70.211 112.713C64.527 117.307 62.511 121.48 62.505 128.664C62.501 133.921 62.948 135.465 65.542 139.155C69.631 144.974 75.096 147.963 81.685 147.984C88.009 148.004 90.771 147.018 95.139 143.183L98.5 140.232L116.489 147.372L134.477 154.512L135.134 159.103C137.692 176.985 157.878 183.153 169.716 169.67C177.048 161.32 176.141 149.721 167.568 142.194C160.186 135.713 150.436 135.494 142.398 141.629L137.806 145.135L119.849 137.939C102.886 131.143 101.909 130.606 102.196 128.255C102.469 126.021 104.317 125.054 120.231 118.82L137.961 111.875L141.731 114.814C145.679 117.893 150.842 120.004 154.399 119.994C161.292 119.976 169.442 114.905 172.71 108.602C174.844 104.485 174.858 95.359 172.736 91.368C167.682 81.863 156.33 77.55 147.007 81.593ZM147.923 92.923C143.004 97.843 144.085 105.441 150.151 108.578C156.811 112.022 164.455 107.354 164.455 99.841C164.455 96.541 163.857 95.261 161.211 92.898C156.772 88.931 151.906 88.94 147.923 92.923ZM78.971 119.379C74.618 120.786 71.346 126.259 72.385 130.396C74.318 138.101 83.483 140.671 89.077 135.077C96.346 127.808 88.861 116.181 78.971 119.379ZM149.775 148.509C141.522 153.138 144.11 165.4 153.61 166.674C157.172 167.152 158.163 166.826 161.085 164.215C163.874 161.723 164.455 160.498 164.455 157.102C164.455 149.68 156.251 144.878 149.775 148.509ZM272.086 179.706C266.055 181.851 259.672 188.46 257.597 194.709C256.112 199.18 255.958 205.098 256.213 248.119C256.494 295.535 256.543 296.58 258.662 300.5C259.852 302.7 262.327 305.94 264.162 307.699C270.113 313.403 273.706 314.312 292.223 314.794C303.618 315.091 309.266 315.615 309.951 316.44C310.524 317.131 311.073 325.851 311.228 336.738L311.5 355.825L336.239 335.466L360.978 315.106L409.239 314.788C452.113 314.505 457.905 314.28 461.129 312.772C466.753 310.141 470.848 306.213 473.799 300.62L476.5 295.5V247C476.5 208.477 476.218 197.702 475.129 194.619C473.384 189.677 467.797 183.477 462.568 180.678L458.5 178.5L367.5 178.318C287.045 178.158 275.988 178.318 272.086 179.706ZM108 233.468V260H114H120L119.931 238.25L119.862 216.5L113.931 211.718L108 206.935V233.468ZM292 209.29C290.625 209.983 289.353 211.576 289.173 212.83C288.401 218.216 285.17 218 366.587 218C441.372 218 441.938 217.985 443.02 215.962C444.512 213.175 443.333 210.077 440.349 208.943C436.304 207.405 295.084 207.735 292 209.29ZM291.223 242.557C288.805 244.25 288.291 247.891 290.2 249.8C291.112 250.712 309.34 251 366.129 251C432.73 251 441.028 250.829 442.429 249.429C444.535 247.322 444.408 245.408 442 243C440.036 241.036 438.667 241 366.723 241C302.019 241 293.185 241.182 291.223 242.557ZM85.211 271.129C80.754 272.414 74.366 279.021 73.071 283.685C72.408 286.071 72.009 302.212 72.006 326.782C72 369.577 72.087 370.321 77.803 376.339C83.454 382.289 84.378 382.471 110.659 382.827L134.819 383.154L154.659 399.498L174.5 415.841L175 400.467C175.275 392.011 175.95 384.659 176.5 384.129C177.05 383.599 184.062 383.016 192.081 382.833C206.273 382.509 206.792 382.42 211.504 379.5C214.681 377.531 217.145 374.985 218.672 372.093L221 367.685V326.303C221 287.593 220.877 284.681 219.097 281.21C216.692 276.519 213.483 273.518 208.768 271.548C205.56 270.207 197.265 270.012 146.782 270.09C113.32 270.142 87.1 270.584 85.211 271.129ZM360.831 275.25C358.437 277.179 358.006 279.563 359.632 281.885C361.098 283.978 361.527 284 400.902 284C438.178 284 440.795 283.885 442.345 282.171C444.508 279.781 444.433 278.433 442 276C440.069 274.069 438.667 274 401.191 274C371.638 274 362.012 274.298 360.831 275.25ZM118.741 284.368C103.925 289.895 96.774 306.091 101.839 322.647C105.149 333.467 110.444 341.442 122 353.016C133.068 364.102 140.759 369.2 146.413 369.2C156.143 369.2 175.222 352.85 185.894 335.368C195.781 319.17 195.384 301.449 184.902 291.162C179.154 285.521 174.405 283.559 166.5 283.559C159.115 283.559 153.996 285.468 149.178 290.019L146.855 292.213L144.678 290.199C138.292 284.294 126.217 281.579 118.741 284.368ZM120.5 294.412C114.491 297.082 110 304.514 110 311.786C110 321.122 116.168 333.04 126.831 344.31C133.932 351.814 143.523 359 146.439 359C153.049 359 172.46 339.826 178.923 326.913C182.315 320.137 183 317.774 183 312.852C183 305.486 181.328 301.373 176.67 297.284C169.793 291.246 161.003 291.933 154.61 299.01C152.624 301.208 151 303.439 151 303.968C151 304.497 150.1 305.411 149 306C146.243 307.475 143.586 305.889 140.425 300.881C136.223 294.224 127.381 291.354 120.5 294.412ZM363.49 326.25C363.244 326.938 362.921 351.35 362.771 380.5L362.5 433.5L360.111 438.788C357.084 445.485 350.337 451.525 343.672 453.505C336.162 455.735 146.894 455.752 139.388 453.523C133.001 451.626 126.636 446.151 123.245 439.638C120.642 434.64 120.559 433.936 120.184 413.75L119.798 393H113.862H107.926L108.213 427.75L108.5 462.5L111.16 468.175C116.105 478.722 124.812 486.145 136.082 489.422C141.065 490.87 152.172 491.009 243.57 490.769L345.5 490.5L351.247 488.179C359.268 484.94 367.17 477.431 371.226 469.194L374.5 462.544L374.77 393.772L375.04 325H369.489C365.953 325 363.775 325.454 363.49 326.25ZM220.408 470.5C218.891 472.816 218.891 473.184 220.408 475.5L222.046 478H245H267.954L269.592 475.5C271.109 473.184 271.109 472.816 269.592 470.5L267.954 468H245H222.046L220.408 470.5Z" fill="#FF6501"/>
<path fill-rule="evenodd" clip-rule="evenodd" d="M134.773 12.555C125.897 14.707 119.102 18.683 111.988 25.89C104.722 33.252 100.357 41.188 98.658 50.13L97.566 55.875L73.533 56.187C49.566 56.499 49.484 56.508 43.839 59.28C37.623 62.333 32.328 67.585 28.793 74.205L26.5 78.5V128.5V178.5L29.468 183.859C32.829 189.927 38.213 194.938 44.924 198.245C49.181 200.343 51.172 200.535 73.5 201L97.5 201.5L97.765 230.615L98.03 259.729L91.249 260.214C79.085 261.085 70.237 266.744 65.29 276.818L62.5 282.5L62.208 324.351C61.871 372.794 61.948 373.39 69.725 382.039C75.492 388.453 82.084 391.69 91.211 392.589L98 393.258L98.021 427.379C98.042 460.537 98.108 461.686 100.374 468.107C104.342 479.346 111.451 487.847 122.343 494.378C133.649 501.158 130.816 501 241.311 501C304.751 501 342.675 500.631 346.109 499.979C363.463 496.688 378.965 482.076 383.61 464.632C384.7 460.538 384.979 445.918 384.988 392.335L385 325.17L421.75 324.79C457.576 324.419 458.651 324.35 464.5 322.045C472.542 318.876 480.965 310.383 483.933 302.45C486.027 296.854 486.062 295.748 485.784 244.622L485.5 192.5L482.813 187.408C478.718 179.648 470.268 172.472 462.339 170.023C456.288 168.154 453.099 168 420.432 168H385.074L384.787 107.673L384.5 47.346L380.259 38.789C373.315 24.779 360.528 14.755 346.109 12.021C342.654 11.365 304.886 11.03 240.614 11.083C158.836 11.151 139.451 11.421 134.773 12.555ZM134.836 22.909C131.721 23.911 127.613 25.694 125.708 26.872C117.745 31.793 109.76 43.54 108.312 52.465L107.738 56H114.211H120.683L121.839 52.144C123.31 47.234 130.035 39.563 135.372 36.708L139.5 34.5H241.5H343.5L347.568 36.678C352.446 39.289 358.296 45.542 360.712 50.728C362.31 54.159 362.498 59.623 362.788 111.25L363.106 168H369.076H375.046L374.773 108.728L374.5 49.455L371.226 42.806C367.17 34.569 359.267 27.06 351.247 23.821L345.5 21.5L243 21.294C146.279 21.1 140.181 21.191 134.836 22.909ZM141.001 45.123C137.777 46.409 134.182 49.785 132.409 53.193L131.008 55.886L159.254 56.193C186.907 56.494 187.605 56.552 192.5 58.953C199.529 62.4 206.394 69.765 208.952 76.6C210.998 82.069 211.048 83.532 210.778 129.862L210.5 177.5L208.052 182.474C204.916 188.847 198.847 194.895 192.5 197.971C188.223 200.044 185.548 200.475 174 200.947L160.5 201.5L160.249 221.5C160.013 240.27 159.871 241.605 157.95 243.2C156.779 244.172 155.174 244.625 154.201 244.257C153.266 243.904 147.703 239.652 141.84 234.808C135.977 229.963 130.914 226 130.59 226C130.265 226 130 233.631 130 242.957V259.914L169.75 260.207L209.5 260.5L214.623 263.203C217.441 264.689 221.579 267.987 223.819 270.532C231.074 278.774 231.118 279.14 230.79 328.13L230.5 371.5L227.401 377C224.017 383.007 217.047 388.986 211.174 390.922C209.153 391.588 202.438 392.391 196.25 392.706L185 393.279V411.068C185 425.907 184.739 429.118 183.429 430.429C182.564 431.293 181.099 432 180.172 432C179.245 432 167.836 423.225 154.818 412.5C141.8 401.775 130.891 393 130.575 393C130.259 393 130.02 401.212 130.044 411.25C130.1 434.662 131.352 438.586 140.21 443.106C143.776 444.926 147.721 445 241.5 445C335.279 445 339.224 444.926 342.79 443.106C344.83 442.065 347.33 440.295 348.345 439.173C352.708 434.348 352.91 431.879 352.956 382.75C352.98 356.975 352.611 336 352.132 336C351.655 336 341.708 343.875 330.028 353.5C318.348 363.125 308.276 371.053 307.646 371.118C301.382 371.766 301 370.34 301 346.309V325L291.75 324.992C272.632 324.977 263.827 321.968 255.165 312.49C251.193 308.144 249.543 305.306 247.962 300.1C245.994 293.62 245.923 291.354 246.205 243.924L246.5 194.5L249.125 189C253.018 180.845 258.141 175.549 265.768 171.792L272.452 168.5L312.726 168.198L353 167.895L352.994 114.198C352.991 80.345 352.607 59.126 351.956 56.781C350.632 52.014 346.491 47.103 342.329 45.364C339.644 44.242 321.714 44.011 241.282 44.063C178.802 44.104 142.598 44.487 141.001 45.123ZM50.239 67.335C45.103 69.197 40.428 73.492 37.862 78.703C35.516 83.467 35.498 83.775 35.179 123.797C34.983 148.431 35.262 166.691 35.898 170.773C37.261 179.524 40.766 184.615 47.936 188.25L53.359 191H78.671H103.983L114.741 199.708C120.659 204.498 130.9 212.885 137.5 218.347L149.5 228.278L150 211.056C150.452 195.491 150.687 193.698 152.441 192.417C153.908 191.347 157.976 191 169.077 191C183.216 191 183.974 190.894 189.136 188.207C193.285 186.046 195.242 184.177 197.777 179.957L201.054 174.5L200.777 127.335L200.5 80.17L197.483 75.878C195.6 73.2 192.455 70.536 189.119 68.793L183.772 66L118.636 66.076C71.178 66.132 52.615 66.473 50.239 67.335ZM147.007 81.593C140.135 84.573 136.009 90.224 135.052 97.969L134.5 102.439L116.5 109.586L98.5 116.734L94.81 113.423C88.416 107.688 76.842 107.354 70.211 112.713C64.527 117.307 62.511 121.48 62.505 128.664C62.501 133.921 62.948 135.465 65.542 139.155C69.631 144.974 75.096 147.963 81.685 147.984C88.009 148.004 90.771 147.018 95.139 143.183L98.5 140.232L116.489 147.372L134.477 154.512L135.134 159.103C137.692 176.985 157.878 183.153 169.716 169.67C177.048 161.32 176.141 149.721 167.568 142.194C160.186 135.713 150.436 135.494 142.398 141.629L137.806 145.135L119.849 137.939C102.886 131.143 101.909 130.606 102.196 128.255C102.469 126.021 104.317 125.054 120.231 118.82L137.961 111.875L141.731 114.814C145.679 117.893 150.842 120.004 154.399 119.994C161.292 119.976 169.442 114.905 172.71 108.602C174.844 104.485 174.858 95.359 172.736 91.368C167.682 81.863 156.33 77.55 147.007 81.593ZM147.923 92.923C143.004 97.843 144.085 105.441 150.151 108.578C156.811 112.022 164.455 107.354 164.455 99.841C164.455 96.541 163.857 95.261 161.211 92.898C156.772 88.931 151.906 88.94 147.923 92.923ZM78.971 119.379C74.618 120.786 71.346 126.259 72.385 130.396C74.318 138.101 83.483 140.671 89.077 135.077C96.346 127.808 88.861 116.181 78.971 119.379ZM149.775 148.509C141.522 153.138 144.11 165.4 153.61 166.674C157.172 167.152 158.163 166.826 161.085 164.215C163.874 161.723 164.455 160.498 164.455 157.102C164.455 149.68 156.251 144.878 149.775 148.509ZM272.086 179.706C266.055 181.851 259.672 188.46 257.597 194.709C256.112 199.18 255.958 205.098 256.213 248.119C256.494 295.535 256.543 296.58 258.662 300.5C259.852 302.7 262.327 305.94 264.162 307.699C270.113 313.403 273.706 314.312 292.223 314.794C303.618 315.091 309.266 315.615 309.951 316.44C310.524 317.131 311.073 325.851 311.228 336.738L311.5 355.825L336.239 335.466L360.978 315.106L409.239 314.788C452.113 314.505 457.905 314.28 461.129 312.772C466.753 310.141 470.848 306.213 473.799 300.62L476.5 295.5V247C476.5 208.477 476.218 197.702 475.129 194.619C473.384 189.677 467.797 183.477 462.568 180.678L458.5 178.5L367.5 178.318C287.045 178.158 275.988 178.318 272.086 179.706ZM108 233.468V260H114H120L119.931 238.25L119.862 216.5L113.931 211.718L108 206.935V233.468ZM292 209.29C290.625 209.983 289.353 211.576 289.173 212.83C288.401 218.216 285.17 218 366.587 218C441.372 218 441.938 217.985 443.02 215.962C444.512 213.175 443.333 210.077 440.349 208.943C436.304 207.405 295.084 207.735 292 209.29ZM291.223 242.557C288.805 244.25 288.291 247.891 290.2 249.8C291.112 250.712 309.34 251 366.129 251C432.73 251 441.028 250.829 442.429 249.429C444.535 247.322 444.408 245.408 442 243C440.036 241.036 438.667 241 366.723 241C302.019 241 293.185 241.182 291.223 242.557ZM85.211 271.129C80.754 272.414 74.366 279.021 73.071 283.685C72.408 286.071 72.009 302.212 72.006 326.782C72 369.577 72.087 370.321 77.803 376.339C83.454 382.289 84.378 382.471 110.659 382.827L134.819 383.154L154.659 399.498L174.5 415.841L175 400.467C175.275 392.011 175.95 384.659 176.5 384.129C177.05 383.599 184.062 383.016 192.081 382.833C206.273 382.509 206.792 382.42 211.504 379.5C214.681 377.531 217.145 374.985 218.672 372.093L221 367.685V326.303C221 287.593 220.877 284.681 219.097 281.21C216.692 276.519 213.483 273.518 208.768 271.548C205.56 270.207 197.265 270.012 146.782 270.09C113.32 270.142 87.1 270.584 85.211 271.129ZM360.831 275.25C358.437 277.179 358.006 279.563 359.632 281.885C361.098 283.978 361.527 284 400.902 284C438.178 284 440.795 283.885 442.345 282.171C444.508 279.781 444.433 278.433 442 276C440.069 274.069 438.667 274 401.191 274C371.638 274 362.012 274.298 360.831 275.25ZM118.741 284.368C103.925 289.895 96.774 306.091 101.839 322.647C105.149 333.467 110.444 341.442 122 353.016C133.068 364.102 140.759 369.2 146.413 369.2C156.143 369.2 175.222 352.85 185.894 335.368C195.781 319.17 195.384 301.449 184.902 291.162C179.154 285.521 174.405 283.559 166.5 283.559C159.115 283.559 153.996 285.468 149.178 290.019L146.855 292.213L144.678 290.199C138.292 284.294 126.217 281.579 118.741 284.368ZM120.5 294.412C114.491 297.082 110 304.514 110 311.786C110 321.122 116.168 333.04 126.831 344.31C133.932 351.814 143.523 359 146.439 359C153.049 359 172.46 339.826 178.923 326.913C182.315 320.137 183 317.774 183 312.852C183 305.486 181.328 301.373 176.67 297.284C169.793 291.246 161.003 291.933 154.61 299.01C152.624 301.208 151 303.439 151 303.968C151 304.497 150.1 305.411 149 306C146.243 307.475 143.586 305.889 140.425 300.881C136.223 294.224 127.381 291.354 120.5 294.412ZM363.49 326.25C363.244 326.938 362.921 351.35 362.771 380.5L362.5 433.5L360.111 438.788C357.084 445.485 350.337 451.525 343.672 453.505C336.162 455.735 146.894 455.752 139.388 453.523C133.001 451.626 126.636 446.151 123.245 439.638C120.642 434.64 120.559 433.936 120.184 413.75L119.798 393H113.862H107.926L108.213 427.75L108.5 462.5L111.16 468.175C116.105 478.722 124.812 486.145 136.082 489.422C141.065 490.87 152.172 491.009 243.57 490.769L345.5 490.5L351.247 488.179C359.268 484.94 367.17 477.431 371.226 469.194L374.5 462.544L374.77 393.772L375.04 325H369.489C365.953 325 363.775 325.454 363.49 326.25ZM220.408 470.5C218.891 472.816 218.891 473.184 220.408 475.5L222.046 478H245H267.954L269.592 475.5C271.109 473.184 271.109 472.816 269.592 470.5L267.954 468H245H222.046L220.408 470.5Z" stroke="#FF6501" stroke-width="2" mask="url(#path-1-outside-1_14_77)"/>
</svg>
