<svg width="512" height="512" viewBox="0 0 512 512" fill="none" xmlns="http://www.w3.org/2000/svg">
<path fill-rule="evenodd" clip-rule="evenodd" d="M142.335 1.03099C130.091 3.23099 115.987 9.97899 105.222 18.787C96.052 26.289 85.849 41.832 82.475 53.437L80.92 58.787L58.21 59.187C35.918 59.58 35.405 59.636 30.351 62.259C27.519 63.729 23.81 66.62 22.109 68.684C15.551 76.64 15.951 63.852 16.239 256.041L16.5 430.5L18.665 434.5C21.494 439.726 27.492 445.449 32.5 447.701C36.219 449.373 41.828 449.52 112.25 449.78C153.913 449.934 188 450.281 188 450.55C188 450.82 185.99 455.042 183.534 459.933L179.067 468.826L167.445 469.163C156.134 469.491 155.758 469.575 153.411 472.306C151.087 475.01 151 475.672 151 490.633V506.154L153.923 509.077L156.846 512H256H355.154L358.077 509.077L361 506.154V490.633C361 475.67 360.913 475.011 358.588 472.306C356.254 469.591 355.794 469.484 344.338 469L332.5 468.5L327.832 459.5L323.164 450.5L399.332 450C469.873 449.537 475.795 449.367 479.5 447.701C484.508 445.449 490.506 439.726 493.335 434.5L495.5 430.5L495.761 256.041C496.05 62.724 496.508 76.458 489.51 68.283C487.599 66.05 483.748 63.228 480.794 61.895C475.622 59.56 474.758 59.498 443.25 59.179C425.512 59 411 58.604 411 58.301C411 57.997 412.208 52.619 413.684 46.35C416.679 33.634 416.371 30.627 411.812 28.068C409.32 26.669 406.219 27.261 362.826 37.418C337.347 43.382 315.074 48.84 313.33 49.546C309.934 50.923 308 53.603 308 56.934C308 58.987 307.746 59 269.08 59H230.161L228.456 53.75C224.041 40.153 214.686 26.264 204 17.443C197.478 12.059 182.908 4.64599 174.5 2.43299C167.256 0.525986 149.46 -0.249014 142.335 1.03099ZM136.79 18.518C115.477 25.54 99.309 44.181 95.357 66.287C89.924 96.677 108.908 126.489 139.5 135.609C147.624 138.031 163.376 138.031 171.5 135.609C188.397 130.572 202.431 118.955 209.687 104C214.921 93.211 216.411 86.762 216.271 75.5C216.017 55.046 205.584 36.443 187.986 25.069C178.135 18.702 171.391 16.808 157 16.364C145.7 16.015 143.76 16.222 136.79 18.518ZM150.174 24.314C148.895 25.676 148 27.921 148 29.768C148 32.551 147.463 33.144 143.25 35.003C140.637 36.155 136.759 38.764 134.631 40.799C129.196 45.997 127.048 51.15 127.022 59.054C126.986 69.7 132.565 78.48 141.682 82.124C143.232 82.744 148.501 83.604 153.391 84.036C163.47 84.925 166.918 86.733 168.402 91.905C171.078 101.236 158.682 108.265 148.266 103.322C145.797 102.15 144.159 100.353 142.838 97.366C140.3 91.63 138.478 90 134.603 90C130.498 90 127 93.505 127 97.618C127 101.866 131.635 110.62 135.408 113.498C137.169 114.841 140.723 116.875 143.305 118.017C147.591 119.913 148 120.394 148 123.547C148 128.096 150.922 131 155.5 131C160.037 131 163 128.092 163 123.637C163 120.5 163.427 120.064 169.386 117.131C179.205 112.297 184 104.783 184 94.228C184 79.742 172.064 69 155.968 69C146.95 69 142 65.324 142 58.626C142 52.617 150.969 47.021 158.374 48.41C162.52 49.188 167.6 53.119 168.561 56.294C169.679 59.982 173.126 63 176.22 63C179.964 63 184.007 58.985 183.978 55.295C183.922 48.195 176.439 38.837 167.75 35.003C163.475 33.116 163 32.578 163 29.628C163 22.896 154.726 19.469 150.174 24.314ZM364.5 52.785C346.9 56.954 332.295 60.525 332.045 60.72C331.561 61.099 381.133 111 381.993 111C382.273 111 385.826 96.713 389.89 79.25C393.953 61.788 397.488 46.938 397.746 46.25C398.346 44.647 401.349 44.057 364.5 52.785ZM35.016 77.83C32.876 79.97 32.031 81.981 31.55 86.08C31.2 89.061 31.045 157.65 31.207 238.5L31.5 385.5H256H480.5L480.793 238.5C480.955 157.65 480.8 89.061 480.45 86.08C479.969 81.981 479.124 79.97 476.984 77.83L474.154 75H440.624H407.094L406.053 78.75C405.48 80.813 405.009 83.043 405.006 83.706C405.001 84.613 412.075 84.985 433.482 85.206L461.965 85.5L465.232 88.769L468.5 92.038L468.752 229.269C469.003 365.513 468.99 366.524 466.98 369.81C462.917 376.454 478.423 376 255.782 375.998C65.204 375.997 53.297 375.896 50 374.248C47.998 373.248 45.752 371.002 44.752 369C43.113 365.72 43.003 357.033 43.002 230.718C43 82.346 42.626 91.028 49.19 87.026C52.069 85.27 54.224 85.007 65.75 85.004L79 85V80V75H58.423H37.846L35.016 77.83ZM232 80V85H282.712H333.425L328.5 80L323.575 75H277.788H232V80ZM59 230.5V360H256H453V230.483V100.967L426.845 101.233L400.69 101.5L397.328 116C394.581 127.849 393.503 130.911 391.428 132.75C386.464 137.149 384.925 136.275 367.952 119.421L352.262 103.842L320.596 137.327C303.18 155.744 288.234 171.08 287.383 171.406C284.432 172.539 282.489 171.947 254.82 161.485L227.01 150.97L198.89 167.152C180.009 178.017 169.804 183.333 167.829 183.333C161.714 183.333 158.253 175.221 162.583 171.037C166.136 167.605 223.705 135 226.212 135C227.572 135 240.504 139.5 254.95 145C269.396 150.5 281.533 155 281.921 155C282.545 155 319.444 116.348 329.414 105.25L333.233 101L280.866 101.003L228.5 101.006L224.842 108.753C215.449 128.645 198.519 143.397 177.5 150.003C168.016 152.984 150.246 153.778 140.322 151.666C115.59 146.401 94.26 129.054 84.976 106.656L82.632 101H70.816H59V230.5ZM327.091 144.053C321.843 146.232 322.066 142.206 322.032 235.615C322 322.257 322.011 322.745 324.073 325.365L326.145 328H342.5H358.855L360.927 325.365C362.988 322.745 363 322.229 363 235.921V149.112L360.589 146.306L358.178 143.5L343.839 143.276C335.953 143.153 328.416 143.503 327.091 144.053ZM337.244 235.75L337.5 312.5L342.25 312.805L347 313.11V236.055V159H341.994H336.988L337.244 235.75ZM208.455 170.455L206 172.909V248.266C206 322.721 206.024 323.649 208.039 325.811C209.971 327.885 210.91 328 225.928 328C240.044 328 242.037 327.791 244.139 326.088L246.5 324.177V248.502V172.827L243.694 170.413C240.998 168.094 240.303 168 225.899 168C211.317 168 210.842 168.067 208.455 170.455ZM268.5 183.155C263.876 185.684 264 183.708 264 255.056C264 322.006 264.022 322.758 266.073 325.365L268.145 328H284.418C299.689 328 300.807 327.871 302.595 325.895C304.423 323.876 304.511 321.052 304.77 255.839L305.041 187.887L302.097 184.944L299.154 182L284.827 182.03C276.401 182.048 269.676 182.511 268.5 183.155ZM221 248.5V313H226H231V248.5V184H226H221V248.5ZM153.501 193.019C151.852 193.537 149.939 194.73 149.251 195.671C148.281 196.998 148 211.591 148 260.691C148 322.667 148.042 324.042 150 326C151.833 327.833 153.333 328 168 328C185.89 328 187.267 327.516 188.491 320.806C188.823 318.988 188.961 290.4 188.797 257.277L188.5 197.054L186.224 194.777C184.1 192.653 183.025 192.486 170.224 192.289C162.676 192.173 155.151 192.502 153.501 193.019ZM279 255.5V313H284H289V255.5V198H284H279V255.5ZM163 260.5V313H168H173V260.5V208H168H163V260.5ZM31.333 402.574C30.268 405.351 31.636 426.445 33.026 428.671C33.746 429.824 35.567 431.494 37.072 432.384C39.569 433.859 58.697 434 255.954 434C440.334 434 472.501 433.792 474.835 432.585C479.546 430.149 480.5 426.954 480.5 413.604V401.5L256.219 401.248C52.698 401.019 31.883 401.142 31.333 402.574ZM241.635 412.073C238.222 414.757 237.947 420.737 241.105 423.595C242.945 425.261 244.827 425.5 256.077 425.5C267.991 425.5 269.107 425.337 271.139 423.306C274.29 420.154 274.057 415.306 270.611 412.342C268.088 410.172 267.021 410 256.079 410C245.646 410 243.963 410.242 241.635 412.073ZM201.51 458.98C199.03 463.919 197 468.194 197 468.48C197 468.766 223.55 469 256 469C288.45 469 315 468.766 315 468.48C315 468.194 312.97 463.919 310.49 458.98L305.98 450H256H206.02L201.51 458.98ZM166 490.5V496H256H346V490.5V485H256H166V490.5Z" fill="#FF6501"/>
</svg>
